<?xml version="1.0" encoding="UTF-8" standalone="no"?>
<svg
   height="2160"
   viewBox="0 0 1016 571.49998"
   width="3840"
   version="1.1"
   id="svg2348"
   xml:space="preserve"
   sodipodi:docname="kali-purple.svg"
   inkscape:version="1.2.2 (b0a8486541, 2022-12-01)"
   inkscape:export-filename="../2023/backgrounds/kali/kali-purple-16x9-2.png"
   inkscape:export-xdpi="96"
   inkscape:export-ydpi="96"
   xmlns:inkscape="http://www.inkscape.org/namespaces/inkscape"
   xmlns:sodipodi="http://sodipodi.sourceforge.net/DTD/sodipodi-0.dtd"
   xmlns:xlink="http://www.w3.org/1999/xlink"
   xmlns="http://www.w3.org/2000/svg"
   xmlns:svg="http://www.w3.org/2000/svg"><sodipodi:namedview
     id="namedview106"
     pagecolor="#ffffff"
     bordercolor="#111111"
     borderopacity="1"
     inkscape:showpageshadow="0"
     inkscape:pageopacity="0"
     inkscape:pagecheckerboard="1"
     inkscape:deskcolor="#d1d1d1"
     showgrid="false"
     inkscape:zoom="1.471875"
     inkscape:cx="2470.3185"
     inkscape:cy="1037.4522"
     inkscape:window-width="3840"
     inkscape:window-height="2089"
     inkscape:window-x="0"
     inkscape:window-y="0"
     inkscape:window-maximized="1"
     inkscape:current-layer="svg2348" /><defs
     id="defs2352"><linearGradient
   inkscape:collect="always"
   id="linearGradient4460"><stop
     style="stop-color:#ffffff;stop-opacity:1;"
     offset="0"
     id="stop4456" /><stop
     style="stop-color:#ffffff;stop-opacity:0;"
     offset="1"
     id="stop4458" /></linearGradient><filter
   id="c-3"
   color-interpolation-filters="sRGB"
   height="1.2491956"
   width="1.0126071"
   x="-0.0063035362"
   y="-0.1245978"><feGaussianBlur
     stdDeviation="4.6066455"
     id="feGaussianBlur8-6" /></filter><clipPath
   clipPathUnits="userSpaceOnUse"
   id="clipPath1148"><rect
     style="opacity:0.5;fill:#000000;fill-opacity:1;stroke:none;stroke-width:1.4822;stroke-linecap:round;stroke-linejoin:round;stroke-miterlimit:16.8"
     id="rect1150"
     width="499.3349"
     height="606.39191"
     x="-340.85773"
     y="-233.45345"
     transform="rotate(30)" /></clipPath><filter
   id="g"
   x="-0.15323561"
   y="-0.15323561"
   width="1.3064712"
   height="1.3064712"
   color-interpolation-filters="sRGB"><feGaussianBlur
     stdDeviation="16.015677"
     id="feGaussianBlur15127" /></filter><filter
   id="g-3"
   x="-0.15323561"
   y="-0.15323561"
   width="1.3064712"
   height="1.3064712"
   color-interpolation-filters="sRGB"><feGaussianBlur
     stdDeviation="16.015677"
     id="feGaussianBlur15193" /></filter><filter
   id="f"
   x="-0.01041752"
   y="-0.014149369"
   width="1.020835"
   height="1.0282987"
   color-interpolation-filters="sRGB"><feGaussianBlur
     stdDeviation="1.7572093"
     id="feGaussianBlur16000" /></filter><filter
   id="a-6"
   x="-0.041715897"
   y="-0.056513631"
   width="1.0834318"
   height="1.1130273"
   color-interpolation-filters="sRGB"><feGaussianBlur
     stdDeviation="7.088655"
     id="feGaussianBlur15983" /></filter><filter
   id="g-1"
   x="-0.15323562"
   y="-0.15323562"
   width="1.3064712"
   height="1.3064712"
   color-interpolation-filters="sRGB"><feGaussianBlur
     stdDeviation="16.015677"
     id="feGaussianBlur15978" /></filter><linearGradient
   id="e"
   x1="165.32001"
   x2="320.01001"
   y1="151.05"
   y2="300.70999"
   gradientUnits="userSpaceOnUse"><stop
     stop-color="#23bac2"
     offset="0"
     id="stop15995"
     style="stop-color:#b8174c;stop-opacity:1" /><stop
     stop-color="#2777ff"
     offset="1"
     id="stop15997"
     style="stop-color:#a900a9;stop-opacity:1;" /></linearGradient><filter
   id="d"
   x="-0.19200334"
   y="-0.19200334"
   width="1.3840067"
   height="1.3840067"
   color-interpolation-filters="sRGB"><feGaussianBlur
     stdDeviation="20.067549"
     id="feGaussianBlur15992" /></filter><linearGradient
   xlink:href="#e"
   id="linearGradient16534"
   gradientUnits="userSpaceOnUse"
   x1="433.69434"
   y1="242.6228"
   x2="667.29401"
   y2="476.22247"
   gradientTransform="translate(-318.08005,-136.76048)" /><filter
   id="b-8"
   x="-0.0090830139"
   y="-0.017677782"
   width="1.018166"
   height="1.0353556"
   color-interpolation-filters="sRGB"><feGaussianBlur
     stdDeviation=".94932635"
     id="feGaussianBlur15986" /></filter><filter
   id="c-7"
   x="-0.0090826141"
   y="-0.017678137"
   width="1.0181652"
   height="1.0353563"
   color-interpolation-filters="sRGB"><feGaussianBlur
     stdDeviation=".94930265"
     id="feGaussianBlur15989" /></filter><filter
   id="filter17655"
   x="-0.041715693"
   y="-0.056513544"
   width="1.0834314"
   height="1.1130271"
   color-interpolation-filters="sRGB"><feGaussianBlur
     stdDeviation="7.088655"
     id="feGaussianBlur17653" /></filter><linearGradient
   xlink:href="#e"
   id="linearGradient17670"
   gradientUnits="userSpaceOnUse"
   x1="165.32001"
   y1="151.05"
   x2="320.01001"
   y2="300.70999"
   gradientTransform="translate(-318.08005,-136.76048)" /><filter
   style="color-interpolation-filters:sRGB"
   id="filter18535"
   x="-0.0090918588"
   y="-0.017643483"
   width="1.0181837"
   height="1.035287"><feGaussianBlur
     stdDeviation="1.1052735"
     id="feGaussianBlur18537" /></filter><filter
   style="color-interpolation-filters:sRGB"
   id="filter18541"
   x="-0.0090616945"
   y="-0.017758197"
   width="1.0181234"
   height="1.0355164"><feGaussianBlur
     stdDeviation="1.1016065"
     id="feGaussianBlur18543" /></filter><filter
   style="color-interpolation-filters:sRGB"
   id="filter18545"
   x="-0.0090616945"
   y="-0.017758197"
   width="1.0181234"
   height="1.0355164"><feGaussianBlur
     stdDeviation="1.1016065"
     id="feGaussianBlur18547" /></filter><filter
   style="color-interpolation-filters:sRGB"
   id="filter23810"
   x="-0.0030692354"
   y="-0.75445405"
   width="1.0061385"
   height="2.5089081"><feGaussianBlur
     stdDeviation="0.33269349"
     id="feGaussianBlur23812" /></filter><filter
   style="color-interpolation-filters:sRGB"
   id="filter23814"
   x="-0.0034230259"
   y="-0.1777662"
   width="1.0068461"
   height="1.3555324"><feGaussianBlur
     stdDeviation="0.38584375"
     id="feGaussianBlur23816" /></filter><filter
   style="color-interpolation-filters:sRGB"
   id="filter24921"
   x="-0.036842482"
   y="-0.068851138"
   width="1.073685"
   height="1.1377023"><feGaussianBlur
     stdDeviation="1.1047019"
     id="feGaussianBlur24923" /></filter><filter
   style="color-interpolation-filters:sRGB"
   id="filter25059"
   x="-0.18289064"
   y="-0.34744631"
   width="1.3657813"
   height="1.6948926"><feGaussianBlur
     stdDeviation="5.383184"
     id="feGaussianBlur25061" /></filter>
	

		
	<filter
   style="color-interpolation-filters:sRGB"
   id="filter1865"
   x="-0.016776394"
   y="-0.069125168"
   width="1.0335528"
   height="1.1382504"><feGaussianBlur
     stdDeviation="0.46068697"
     id="feGaussianBlur1867" /></filter><filter
   style="color-interpolation-filters:sRGB"
   id="filter8581"
   x="-0.0058939196"
   y="-0.0262067"
   width="1.0117878"
   height="1.0524133"><feGaussianBlur
     stdDeviation="0.25799384"
     id="feGaussianBlur8583" /></filter><filter
   style="color-interpolation-filters:sRGB"
   id="filter8591"
   x="-0.029397629"
   y="-0.13071351"
   width="1.0587953"
   height="1.261427"><feGaussianBlur
     stdDeviation="1.286819"
     id="feGaussianBlur8593" /></filter><filter
   style="color-interpolation-filters:sRGB"
   id="filter13019"
   x="-0.039709859"
   y="-0.62469244"
   width="1.0794197"
   height="2.2493849"><feGaussianBlur
     stdDeviation="1.2388172"
     id="feGaussianBlur13017" /></filter><meshgradient
   id="a-3"
   x="4370.7446"
   y="264.03452"
   gradientTransform="matrix(-1,0,0,0.99997,5386.7,-264.03001)"
   gradientUnits="userSpaceOnUse"><meshrow
     id="meshrow907"><meshpatch
       id="meshpatch897"><stop
         stop-color="#65cfd4"
         path="c 169.333,0  338.667,0  508,0"
         id="stop889"
         style="stop-color:#8c42ab;stop-opacity:1" /><stop
         stop-color="#3b6ab9"
         path="c -278.682,223.734  196.984,-65.9215  -25.598,282.677"
         id="stop891"
         style="stop-color:#2656a8;stop-opacity:1" /><stop
         stop-color="#23bac2"
         path="c -471.541,247.923  -175.538,-11.398  -482.402,3.08183"
         id="stop893"
         style="stop-color:#8c42ab;stop-opacity:1" /><stop
         stop-color="#3b6ab9"
         path="c 0,-95.25  0,-190.5  0,-285.759"
         id="stop895"
         style="stop-color:#622e78;stop-opacity:1" /></meshpatch><meshpatch
       id="meshpatch905"><stop
         path="c 288.768,-117.626  570.299,-276.872  508,0"
         id="stop899" /><stop
         stop-color="#367bf0"
         path="c 0,95.25  0,190.5  0,285.75"
         id="stop901"
         style="stop-color:#8c42ab;stop-opacity:1" /><stop
         stop-color="#3b6ab9"
         path="c -343.057,305.827  -284.645,18.6416  -533.598,-3.073"
         id="stop903"
         style="stop-color:#622e78;stop-opacity:1" /></meshpatch></meshrow><meshrow
     id="meshrow923"><meshpatch
       id="meshpatch915"><stop
         path="c 36.7602,181.882  93.2184,262.361  25.598,288.823"
         id="stop909" /><stop
         stop-color="#3b6ab9"
         path="c -169.333,0  -338.667,0  -508,0"
         id="stop911"
         style="stop-color:#23bac2;stop-opacity:1" /><stop
         stop-color="#153873"
         path="c 0,-95.25  0,-190.5  0,-285.741"
         id="stop913" /></meshpatch><meshpatch
       id="meshpatch921"><stop
         path="c 0,95.25  86.8619,168.785  0,285.75"
         id="stop917" /><stop
         stop-color="#65cfd4"
         path="c -169.333,0  -338.667,0  -508,0"
         id="stop919"
         style="stop-color:#622e78;stop-opacity:1" /></meshpatch></meshrow></meshgradient><filter
   style="color-interpolation-filters:sRGB"
   id="filter18541-6"
   x="-0.036246778"
   y="-0.071032786"
   width="1.0724936"
   height="1.1420656"><feGaussianBlur
     stdDeviation="4.4064258"
     id="feGaussianBlur18543-7" /></filter><clipPath
   clipPathUnits="userSpaceOnUse"
   id="clipPath4403"><rect
     style="opacity:0.153575;fill:#ffffff;fill-opacity:1;stroke:none;stroke-width:5.10712;stroke-linecap:round;stroke-linejoin:round;stroke-miterlimit:16.8;stroke-dasharray:none;stroke-opacity:1"
     id="rect4405"
     width="509.34363"
     height="152.32487"
     x="506.6564"
     y="193.42171" /></clipPath><linearGradient
   inkscape:collect="always"
   xlink:href="#linearGradient4460"
   id="linearGradient4462"
   x1="277.59497"
   y1="122.05351"
   x2="277.59497"
   y2="116.00375"
   gradientUnits="userSpaceOnUse" /><filter
   inkscape:collect="always"
   style="color-interpolation-filters:sRGB"
   id="filter4466"
   x="-0.031900454"
   y="-0.10666868"
   width="1.0638009"
   height="1.2133374"><feGaussianBlur
     inkscape:collect="always"
     stdDeviation="6.7701221"
     id="feGaussianBlur4468" /></filter><meshgradient
   inkscape:collect="always"
   id="meshgradient4550"
   gradientUnits="userSpaceOnUse"
   gradientTransform="matrix(-1,0,0,0.99997,5386.7,-264.03001)"
   x="4370.7446"
   y="264.03452"><meshrow
     id="meshrow4570"><meshpatch
       id="meshpatch4560"><stop
         stop-color="#65cfd4"
         path="c 169.333,0  338.667,0  508,0"
         id="stop4552"
         style="stop-color:#8c42ab;stop-opacity:1" /><stop
         stop-color="#3b6ab9"
         path="c -278.682,223.734  196.984,-65.9215  -25.598,282.677"
         id="stop4554"
         style="stop-color:#2656a8;stop-opacity:1" /><stop
         stop-color="#23bac2"
         path="c -471.541,247.923  -175.538,-11.398  -482.402,3.08183"
         id="stop4556"
         style="stop-color:#8c42ab;stop-opacity:1" /><stop
         stop-color="#3b6ab9"
         path="c 0,-95.25  0,-190.5  0,-285.759"
         id="stop4558"
         style="stop-color:#622e78;stop-opacity:1" /></meshpatch><meshpatch
       id="meshpatch4568"><stop
         path="c 288.768,-117.626  570.299,-276.872  508,0"
         id="stop4562" /><stop
         stop-color="#367bf0"
         path="c 0,95.25  0,190.5  0,285.75"
         id="stop4564"
         style="stop-color:#8c42ab;stop-opacity:1" /><stop
         stop-color="#3b6ab9"
         path="c -343.057,305.827  -284.645,18.6416  -533.598,-3.073"
         id="stop4566"
         style="stop-color:#622e78;stop-opacity:1" /></meshpatch></meshrow><meshrow
     id="meshrow4586"><meshpatch
       id="meshpatch4578"><stop
         path="c 36.7602,181.882  93.2184,262.361  25.598,288.823"
         id="stop4572" /><stop
         stop-color="#3b6ab9"
         path="c -169.333,0  -338.667,0  -508,0"
         id="stop4574"
         style="stop-color:#23bac2;stop-opacity:1" /><stop
         stop-color="#153873"
         path="c 0,-95.25  0,-190.5  0,-285.741"
         id="stop4576" /></meshpatch><meshpatch
       id="meshpatch4584"><stop
         path="c 0,95.25  86.8619,168.785  0,285.75"
         id="stop4580" /><stop
         stop-color="#65cfd4"
         path="c -169.333,0  -338.667,0  -508,0"
         id="stop4582"
         style="stop-color:#622e78;stop-opacity:1" /></meshpatch></meshrow></meshgradient><filter
   inkscape:collect="always"
   style="color-interpolation-filters:sRGB"
   id="filter4592"
   x="-0.0034389811"
   y="-0.0061137443"
   width="1.006878"
   height="1.0122275"><feGaussianBlur
     inkscape:collect="always"
     stdDeviation="1.4558353"
     id="feGaussianBlur4594" /></filter><filter
   style="color-interpolation-filters:sRGB;"
   inkscape:label="Drop Shadow"
   id="filter1744"
   x="-0.034336019"
   y="-0.065229795"
   width="1.068672"
   height="1.1304596"><feFlood
     flood-opacity="0.498039"
     flood-color="rgb(255,255,255)"
     result="flood"
     id="feFlood1734" /><feComposite
     in="flood"
     in2="SourceGraphic"
     operator="out"
     result="composite1"
     id="feComposite1736" /><feGaussianBlur
     in="composite1"
     stdDeviation="1.9999999"
     result="blur"
     id="feGaussianBlur1738" /><feOffset
     dx="0"
     dy="0"
     result="offset"
     id="feOffset1740" /><feComposite
     in="offset"
     in2="SourceGraphic"
     operator="atop"
     result="composite2"
     id="feComposite1742" /></filter><meshgradient
   inkscape:collect="always"
   id="meshgradient1746"
   gradientUnits="userSpaceOnUse"
   x="614.75153"
   y="234.72121"><meshrow
     id="meshrow1748"><meshpatch
       id="meshpatch1750"><stop
         path="c 46.5983,0  93.1966,0  139.795,0"
         style="stop-color:#ffffff;stop-opacity:1"
         id="stop1752" /><stop
         path="c 0,24.5287  0,49.0573  0,73.586"
         style="stop-color:#000000;stop-opacity:1"
         id="stop1754" /><stop
         path="c -46.5983,0  -93.1966,0  -139.795,0"
         style="stop-color:#ffffff;stop-opacity:1"
         id="stop1756" /><stop
         path="c 0,-24.5287  0,-49.0573  0,-73.586"
         style="stop-color:#000000;stop-opacity:1"
         id="stop1758" /></meshpatch></meshrow></meshgradient><filter
   style="color-interpolation-filters:sRGB;"
   inkscape:label="Drop Shadow"
   id="filter1818"
   x="-0.034336022"
   y="-0.068589239"
   width="1.068672"
   height="1.1371785"><feFlood
     flood-opacity="0.498039"
     flood-color="rgb(255,255,255)"
     result="flood"
     id="feFlood1808" /><feComposite
     in="flood"
     in2="SourceGraphic"
     operator="out"
     result="composite1"
     id="feComposite1810" /><feGaussianBlur
     in="composite1"
     stdDeviation="1.9999998"
     result="blur"
     id="feGaussianBlur1812" /><feOffset
     dx="0"
     dy="0"
     result="offset"
     id="feOffset1814" /><feComposite
     in="offset"
     in2="SourceGraphic"
     operator="atop"
     result="composite2"
     id="feComposite1816" /></filter><meshgradient
   inkscape:collect="always"
   id="meshgradient1823"
   gradientUnits="userSpaceOnUse"
   x="614.75134"
   y="239.91299"><meshrow
     id="meshrow1825"><meshpatch
       id="meshpatch1827"><stop
         path="c 46.5983,0  93.1966,0  139.795,0"
         style="stop-color:#000000;stop-opacity:1"
         id="stop1829" /><stop
         path="c 0,23.3273  0,46.6545  0,69.9818"
         style="stop-color:#ffffff;stop-opacity:1"
         id="stop1831" /><stop
         path="c -46.5983,0  -93.1966,0  -139.795,0"
         style="stop-color:#000000;stop-opacity:1"
         id="stop1833" /><stop
         path="c 0,-23.3273  0,-46.6545  0,-69.9818"
         style="stop-color:#ffffff;stop-opacity:1"
         id="stop1835" /></meshpatch></meshrow></meshgradient><filter
   style="color-interpolation-filters:sRGB;"
   inkscape:label="Drop Shadow"
   id="filter2385"
   x="-0.017168013"
   y="-0.032614903"
   width="1.034336"
   height="1.0652298"><feFlood
     flood-opacity="1"
     flood-color="rgb(255,255,255)"
     result="flood"
     id="feFlood2375" /><feComposite
     in="flood"
     in2="SourceGraphic"
     operator="out"
     result="composite1"
     id="feComposite2377" /><feGaussianBlur
     in="composite1"
     stdDeviation="1.0000001"
     result="blur"
     id="feGaussianBlur2379" /><feOffset
     dx="0"
     dy="0"
     result="offset"
     id="feOffset2381" /><feComposite
     in="offset"
     in2="SourceGraphic"
     operator="atop"
     result="composite2"
     id="feComposite2383" /></filter></defs><filter
     id="a"
     color-interpolation-filters="sRGB"
     height="1.2865727"
     width="1.1733187"
     x="-0.086659379"
     y="-0.14328636"><feGaussianBlur
       stdDeviation="37.597238"
       id="feGaussianBlur2" /></filter><filter
     id="b"
     color-interpolation-filters="sRGB"
     height="1.2532425"
     width="1.188307"
     x="-0.094153538"
     y="-0.12662123"><feGaussianBlur
       stdDeviation="9.8703885"
       id="feGaussianBlur5" /></filter><filter
     id="c"
     color-interpolation-filters="sRGB"
     height="1.2492085"
     width="1.0126071"
     x="-0.0063035307"
     y="-0.12460426"><feGaussianBlur
       stdDeviation="4.6066455"
       id="feGaussianBlur8" /></filter><rect
     style="opacity:1;fill:#000000;fill-opacity:1;stroke:none;stroke-width:0.581127;stroke-linecap:round;stroke-linejoin:round;stroke-miterlimit:16.8;stroke-dasharray:none;stroke-opacity:1;paint-order:normal"
     id="rect12909"
     width="1084.5293"
     height="738.24969"
     x="-35.136375"
     y="-83.374878" /><path
     d="M 1.1111108e-6,-5.0000001e-6 V 571.49999 H 1016 V -5.0000001e-6 Z"
     style="fill:url(#a-3);stroke-width:3.7795;paint-order:fill markers stroke"
     id="path937" /><rect
     style="opacity:1;fill:#000000;fill-opacity:1;stroke:none;stroke-width:5.10713;stroke-linecap:round;stroke-linejoin:round;stroke-miterlimit:16.8;stroke-dasharray:none;stroke-opacity:1;filter:url(#filter4466)"
     id="rect4464"
     width="509.34363"
     height="152.32487"
     x="506.6564"
     y="193.42171"
     transform="matrix(1,0,0,0.91815907,5.2916666,24.179681)" /><path
     id="path18539"
     style="opacity:0.1;mix-blend-mode:normal;fill:#ffffff;fill-opacity:1;stroke:none;stroke-width:0.55744;stroke-opacity:1;filter:url(#filter18541-6)"
     d="m 282.30942,113.76264 a 145.88094,145.88094 0 0 0 -145.88086,145.88086 145.88094,145.88094 0 0 0 0.21485,3 145.88094,145.88094 0 0 1 145.66601,-142.88086 145.88094,145.88094 0 0 1 145.77149,141.41406 145.88094,145.88094 0 0 0 0.10937,-1.5332 145.88094,145.88094 0 0 0 -145.88086,-145.88086 z"
     transform="matrix(0.54534172,0,0,0.54534172,350.79478,125.23991)" /><path
     d="M 1.1111108e-6,-5.0000001e-6 V 571.49999 H 1016 V -5.0000001e-6 Z"
     style="fill:url(#meshgradient4550);stroke-width:3.7795;paint-order:fill markers stroke;filter:url(#filter4592)"
     id="path4389"
     clip-path="url(#clipPath4403)"
     transform="scale(1.0104443,1)" /><rect
     style="opacity:0.1;fill:#ffffff;fill-opacity:1;stroke:none;stroke-width:5.10713;stroke-linecap:round;stroke-linejoin:round;stroke-miterlimit:16.8;stroke-dasharray:none;stroke-opacity:1"
     id="rect23126"
     width="509.34363"
     height="152.32487"
     x="506.6564"
     y="193.42171" /><path
     id="rect23800"
     style="opacity:0.25428981;mix-blend-mode:normal;fill:url(#linearGradient4462);fill-opacity:1;stroke:none;stroke-width:2.64583;stroke-linecap:round;stroke-linejoin:round;stroke-miterlimit:16.8;stroke-dasharray:none;stroke-opacity:1;filter:url(#filter23814)"
     d="m 158.48593,115.91826 c 1.05741,0.26956 1.72307,4.70613 6.10881,5.20923 h 264.41938 v -5.20923 z"
     transform="matrix(1.8827741,0,0,5.0993044,208.26299,-271.70867)"
     sodipodi:nodetypes="ccccc" /><g
     id="g15827"
     transform="matrix(0.54534171,0,0,0.54534171,1639.1854,-306.68307)"><path
       d="m -2268.8324,932.30955 c -29.422,0.034 -48.857,2.4022 -49.018,2.4219 -7e-4,10e-5 -0.1113,0.01 -0.1113,0.01 -1.9208,0.221 -1.6766,3.0824 0.2539,2.9746 0,0 106.98,-5.0542 192.73,29.41 3.0595,13.089 11.139,33.15205 15.912,43.81605 -6.4977,4.4595 -13.468,8.9863 -19.203,16.17 -6.0198,7.5407 -10.569,17.947 -11.781,33.859 -2.4573,32.277 25.225,60.533 59.463,61.404 31.749,1.6903 53.335,1.9234 79.613,15.543 12.272,6.7936 23.702,20.759 32.238,37.818 8.5411,17.068 14.208,37.205 15.225,56.195 0.095,1.8662 2.8387,1.9003 2.9805,0.037 0.01,-0.058 0,-0.1372 0,-0.1953 1.1026,-14.541 -1.0448,-37.049 -9.7617,-58.461 -7.3013,-17.935 -19.364,-35.01 -37.91,-45.719 26.655,7.2789 41.914,20.807 50.686,33.168 10.065,14.183 11.551,26.806 11.543,26.736 0.2118,1.7846 2.8153,1.7434 2.9707,-0.047 0,0 1.3231,-15.473 -9.3535,-32.521 -10.677,-17.048 -33.342,-35.683 -80.594,-42.617 -11.969,-1.7561 -27.074,-3.1058 -42.381,-3.1445 -0.01,-10e-5 -0.016,-10e-5 -0.023,0 -37.042,0.4898 -55.716,-20.623 -58.623,-42.279 -1.4537,-10.828 1.0887,-21.796 7.3789,-30.295 6.2903,-8.4988 16.301,-14.584 30.094,-15.662 h 0.01 c 22.647,-1.8687 50.269,10.379 77.432,23.018 -0.027,3.1387 0.2511,6.3048 2.5449,9.1719 1.5359,1.9198 4.3068,3.2538 7.127,4.5859 2.8195,1.3318 5.7216,2.5388 6.873,3.1992 2.6176,1.5025 11.349,7.1032 16.496,13.803 0.6606,0.8612 1.9903,0.7522 2.502,-0.2051 0.027,-0.05 0.8092,-0.9524 1.8418,-1.8164 1.0326,-0.864 2.3429,-1.8488 3.6191,-2.7676 2.5524,-1.8375 4.9688,-3.4121 4.9688,-3.4121 1.2578,-0.8198 0.6553,-2.7746 -0.8457,-2.7441 0,0 -0.3668,0.021 -1.5391,-0.2031 -1.1723,-0.2239 -3.0361,-0.6946 -5.6875,-1.6855 -2.4401,-0.9119 -5.355,-2.8865 -7.6035,-4.6719 -1.1243,-0.8927 -2.0919,-1.7367 -2.7754,-2.3691 -0.082,-0.076 -0.1161,-0.1124 -0.1895,-0.1817 0.7145,-0.6428 0.8123,-1.6703 0.668,-2.3164 -0.1475,-0.6602 -0.4352,-1.1955 -0.7578,-1.7168 -0.6447,-1.0417 -1.4644,-1.9704 -2.0312,-2.5371 v 0 c 0.082,0.082 -0.1678,-0.2098 -0.4199,-0.5781 -0.2532,-0.3696 -0.5789,-0.869 -0.9454,-1.4453 -0.7329,-1.1527 -1.6317,-2.6184 -2.5058,-4.0625 -1.7483,-2.8882 -3.3259,-5.5727 -3.4785,-5.8281 0,0 -0.3798,-0.7993 -1.1133,-1.2891 -0.1154,-0.077 -0.2409,-0.1374 -0.373,-0.1797 -0.828,-0.2662 -1.4844,-0.2039 -2.334,-0.1601 -0.8496,0.044 -1.7923,0.1437 -2.6856,0.2578 -1.4943,0.1909 -2.4216,0.3592 -2.8262,0.4297 -1.0103,-0.5329 -8.9072,-4.9072 -11.809,-13.82 -0.5353,-1.6348 -2.955,-1.2177 -2.9121,0.5019 0.016,0.5857 -0.8701,2.3306 -0.6778,4.9707 -3.5086,-2.1141 -6.527,-5.4732 -9.1562,-12.393 -0.4827,-1.276 -2.2828,-1.2899 -2.7852,-0.021 -1.0069,2.5321 -1.0677,4.6507 -0.8632,6.293 -3.3327,-1.5671 -8.7895,-5.0153 -9.9785,-11.869 -0.2551,-1.4664 -2.2636,-1.698 -2.8457,-0.3281 -0.9802,2.3107 -1.0671,4.2231 -0.9024,5.7637 -6.2107,-2.6638 -23.316,-8.893 -48.844,-9.0312 -4.927,-0.4525 -8.8427,-2.918 -12.059,-6.61525 -3.2163,-3.6977 -5.659,-8.6263 -7.3887,-13.73 -1.7297,-5.1042 -2.7521,-10.38 -3.2148,-14.732 -0.4627,-4.3524 -0.2681,-7.9507 0.055,-8.9824 0.2156,-0.6878 -0.091,-1.4314 -0.7285,-1.7676 0,0 -31.217,-16.422 -92.244,-23.641 -22.882,-2.7067 -44.211,-3.5339 -61.938,-3.5137 z m 71.268,32.521 c -9.2988,0.07 -19.28,0.4167 -29.768,1.1621 -56.026,3.9823 -112.43,23.557 -112.43,23.557 -1.8043,0.6227 -0.9969,3.3276 0.8535,2.8594 0,0 115.04,-28.873 211.14,-11.949 0.085,0.015 0.1714,0.023 0.2578,0.023 v 0 c 1.0058,-4e-4 1.7236,-0.9748 1.4258,-1.9356 l -2.5117,-8.1055 c -0.1652,-0.5344 -0.6152,-0.9317 -1.166,-1.0293 0,0 -27.515,-4.8845 -67.803,-4.582 0,0 -0.01,0 -0.012,0 z m 68.311,17.264 c -9.8882,-0.042 -40.315,1.204 -86.016,15.504 -57.354,17.94605 -89.998,43.45905 -89.998,43.45905 -1.4384,1.1375 0.043,3.3653 1.6484,2.4785 0,0 84.923,-47.36305 180.56,-50.05105 0.9991,-0.029 1.6884,-1.0119 1.375,-1.9609 l -2.748,-8.3184 c -0.1907,-0.577 -0.712,-0.981 -1.3184,-1.0215 0,0 -1.2177,-0.08 -3.5,-0.09 z m 62.531,-0.1387 c -1.4649,0.021 -2.0262,1.9197 -0.8086,2.7344 v 0 c 0.088,0.059 0.1813,0.1077 0.2793,0.1465 26.227,10.663 48.975,24.75705 66.609,44.13105 0.016,0.017 0.032,0.034 0.049,0.051 v 0 c 0.3039,0.3035 0.7237,0.4615 1.1523,0.4336 l 4.2793,-0.2793 c 1.214,-0.08 1.8281,-1.5003 1.0547,-2.4394 0,0 -24.778,-30.02805 -72.021,-44.66205 0,0 -0.01,-0.01 -0.016,-0.01 -0.024,-0.01 -0.048,-0.017 -0.072,-0.025 -0.014,0 -0.027,-0.01 -0.041,-0.014 -0.1515,-0.048 -0.3098,-0.072 -0.4688,-0.07 z m 74.68,63.22505 c 0.858,0.1729 2.4764,3.3569 3.9629,5.6309 0.1305,0.1848 0.2634,0.3816 0.3887,0.5371 0,0.014 0,0.024 0.012,0.037 0.1679,0.2397 0.3353,0.488 0.4961,0.6875 0.081,0.4756 0.2162,0.7661 -0.8965,0.5371 -0.094,-0.4888 -0.2539,-0.6308 -0.2539,-0.6308 0,0 -2.6864,-1.5969 -3.5098,-2.7305 -0.8241,-1.1335 -0.9681,-3.1153 -0.5664,-3.8672 0.097,-0.1681 0.2212,-0.229 0.3672,-0.2012 z"
       filter="url(#a)"
       opacity="0.2"
       id="path16003"
       style="filter:url(#a-6)" /><g
       transform="translate(-2362.5382,793.93655)"
       stroke-width="0.55744"
       id="g16015"><circle
         cx="282.31"
         cy="262.76001"
         r="145.88094"
         fill="url(#e)"
         id="circle18367"
         style="fill:#000000;fill-opacity:1;stroke:none;stroke-width:0.55744;stroke-opacity:1" /><circle
         cx="282.31"
         cy="262.76001"
         r="125.42"
         fill="url(#e)"
         filter="url(#d)"
         opacity="0.59533"
         id="circle16007"
         style="fill:url(#linearGradient17670)" /><circle
         cx="282.31"
         cy="262.76001"
         r="125.42"
         fill="url(#e)"
         id="circle16009"
         style="fill:url(#linearGradient16534)" /><path
         d="m 407.61,259.3 a 125.42,125.42 0 0 1 -125.3,122.97 125.42,125.42 0 0 1 -125.3,-121.96 125.42,125.42 0 0 0 -0.1224,2.4536 125.42,125.42 0 0 0 125.42,125.42 125.42,125.42 0 0 0 125.42,-125.42 125.42,125.42 0 0 0 -0.12239,-3.464 z"
         filter="url(#b)"
         opacity="0.1"
         id="path16011"
         style="filter:url(#b-8)"
         transform="matrix(1.0082115,0,0,1,-2.3181658,0)" /><path
         d="m 282.31,137.34 a 125.42,125.42 0 0 0 -125.42,125.42 125.42,125.42 0 0 0 0.1224,3.4582 125.42,125.42 0 0 1 125.3,-122.97 125.42,125.42 0 0 1 125.3,121.96 125.42,125.42 0 0 0 0.12239,-2.4479 125.42,125.42 0 0 0 -125.42,-125.42 z"
         fill="#ffffff"
         filter="url(#c)"
         opacity="0.1"
         id="path16013"
         style="filter:url(#c-7)" /><path
         id="circle18525"
         style="opacity:1;fill:#000000;fill-opacity:1;stroke:none;stroke-width:0.55744;stroke-opacity:1;filter:url(#filter18545)"
         d="m 282.30942,116.87839 a 145.88094,145.88094 0 0 0 -145.88086,145.88086 145.88094,145.88094 0 0 0 0.21485,3 145.88094,145.88094 0 0 1 145.66601,-142.88086 145.88094,145.88094 0 0 1 145.77149,141.41406 145.88094,145.88094 0 0 0 0.10937,-1.5332 145.88094,145.88094 0 0 0 -145.88086,-145.88086 z" /><path
         id="circle18530"
         style="opacity:0.415575;fill:#000000;fill-opacity:1;stroke:none;stroke-width:0.55744;stroke-opacity:1;filter:url(#filter18535)"
         d="M 428.08091,260.87825 A 145.88094,145.88094 0 0 1 282.30942,405.22591 145.88094,145.88094 0 0 1 136.64341,262.34505 a 145.88094,145.88094 0 0 0 -0.21485,3 145.88094,145.88094 0 0 0 145.88086,145.88086 145.88094,145.88094 0 0 0 145.88086,-145.88086 145.88094,145.88094 0 0 0 -0.10937,-4.4668 z" /></g><path
       d="m -2279.3591,931.33921 c -29.422,0.034 -48.857,2.4022 -49.018,2.4219 -7e-4,10e-5 -0.1113,0.01 -0.1113,0.01 -1.9208,0.221 -1.6766,3.0824 0.2539,2.9746 0,0 106.98,-5.0542 192.73,29.41 3.0595,13.089 11.139,33.15201 15.912,43.81569 -6.4977,4.4595 -13.468,8.9863 -19.203,16.17 -6.0198,7.5407 -10.569,17.947 -11.781,33.859 -2.4573,32.277 25.225,60.533 59.463,61.404 31.749,1.6903 53.335,1.9234 79.613,15.543 12.272,6.7936 23.702,20.759 32.238,37.818 8.5411,17.068 14.208,37.205 15.225,56.195 0.095,1.8662 2.8387,1.9003 2.9805,0.037 0.01,-0.058 0,-0.1372 0,-0.1953 1.1026,-14.541 -1.0448,-37.049 -9.7617,-58.461 -7.3013,-17.935 -19.364,-35.01 -37.91,-45.719 26.655,7.2789 41.914,20.807 50.686,33.168 10.065,14.183 11.551,26.806 11.543,26.736 0.2118,1.7846 2.8153,1.7434 2.9707,-0.047 0,0 1.3231,-15.473 -9.3535,-32.521 -10.677,-17.048 -33.342,-35.683 -80.594,-42.617 -11.969,-1.7561 -27.074,-3.1058 -42.381,-3.1445 -0.01,-10e-5 -0.016,-10e-5 -0.023,0 -37.042,0.4898 -55.716,-20.623 -58.623,-42.279 -1.4537,-10.828 1.0887,-21.796 7.3789,-30.295 6.2903,-8.4988 16.301,-14.584 30.094,-15.662 h 0.01 c 22.647,-1.8687 50.269,10.379 77.432,23.018 -0.027,3.1387 0.2511,6.3048 2.5449,9.1719 1.5359,1.9198 4.3068,3.2538 7.127,4.5859 2.8195,1.3318 5.7216,2.5388 6.873,3.1992 2.6176,1.5025 11.349,7.1032 16.496,13.803 0.6606,0.8612 1.9903,0.7522 2.502,-0.2051 0.027,-0.05 0.8092,-0.9524 1.8418,-1.8164 1.0326,-0.864 2.3429,-1.8488 3.6191,-2.7676 2.5524,-1.8375 4.9688,-3.4121 4.9688,-3.4121 1.2578,-0.8198 0.6553,-2.7746 -0.8457,-2.7441 0,0 -0.3668,0.021 -1.5391,-0.2031 -1.1723,-0.2239 -3.0361,-0.6946 -5.6875,-1.6855 -2.4401,-0.9119 -5.355,-2.8865 -7.6035,-4.6719 -1.1243,-0.8927 -2.0919,-1.7367 -2.7754,-2.3691 -0.082,-0.076 -0.1161,-0.1124 -0.1895,-0.1817 0.7145,-0.6428 0.8123,-1.6703 0.668,-2.3164 -0.1475,-0.6602 -0.4352,-1.1955 -0.7578,-1.7168 -0.6447,-1.0417 -1.4644,-1.9704 -2.0312,-2.5371 v 0 c 0.082,0.082 -0.1678,-0.2098 -0.4199,-0.5781 -0.2532,-0.3696 -0.5789,-0.869 -0.9454,-1.4453 -0.7329,-1.1527 -1.6317,-2.6184 -2.5058,-4.0625 -1.7483,-2.8882 -3.3259,-5.5727 -3.4785,-5.8281 0,0 -0.3798,-0.7993 -1.1133,-1.2891 -0.1154,-0.077 -0.2409,-0.1374 -0.373,-0.1797 -0.828,-0.2662 -1.4844,-0.2039 -2.334,-0.1601 -0.8496,0.044 -1.7923,0.1437 -2.6856,0.2578 -1.4943,0.1909 -2.4216,0.3592 -2.8262,0.4297 -1.0103,-0.5329 -8.9072,-4.9072 -11.809,-13.82 -0.5353,-1.6348 -2.955,-1.2177 -2.9121,0.5019 0.016,0.5857 -0.8701,2.3306 -0.6778,4.9707 -3.5086,-2.1141 -6.527,-5.4732 -9.1562,-12.393 -0.4827,-1.276 -2.2828,-1.2899 -2.7852,-0.021 -1.0069,2.5321 -1.0677,4.6507 -0.8632,6.293 -3.3327,-1.5671 -8.7895,-5.0153 -9.9785,-11.869 -0.2551,-1.4663 -2.2636,-1.6979 -2.8457,-0.3281 -0.9802,2.3107 -1.0671,4.2231 -0.9024,5.7637 -6.2107,-2.6638 -23.316,-8.8928 -48.844,-9.031 -4.927,-0.4525 -8.8427,-2.9179 -12.059,-6.61509 -3.2163,-3.6977 -5.659,-8.6263 -7.3887,-13.73 -1.7297,-5.1042 -2.7521,-10.38 -3.2148,-14.732 -0.4627,-4.3524 -0.2681,-7.9507 0.055,-8.9824 0.2156,-0.6878 -0.091,-1.4314 -0.7285,-1.7676 0,0 -31.217,-16.422 -92.244,-23.641 -22.882,-2.7067 -44.211,-3.5339 -61.938,-3.5137 z m 71.268,32.521 c -9.2988,0.07 -19.28,0.4167 -29.768,1.1621 -56.026,3.9823 -112.43,23.557 -112.43,23.557 -1.8043,0.6227 -0.9969,3.3276 0.8535,2.8594 0,0 115.04,-28.873 211.14,-11.949 0.085,0.015 0.1714,0.023 0.2578,0.023 v 0 c 1.0058,-4e-4 1.7236,-0.9748 1.4258,-1.9356 l -2.5117,-8.1055 c -0.1652,-0.5344 -0.6152,-0.9317 -1.166,-1.0293 0,0 -27.515,-4.8845 -67.803,-4.582 0,0 -0.01,0 -0.012,0 z m 68.311,17.264 c -9.8882,-0.042 -40.315,1.204 -86.016,15.504 -57.354,17.94569 -89.998,43.45869 -89.998,43.45869 -1.4384,1.1375 0.043,3.3653 1.6484,2.4785 0,0 84.923,-47.36269 180.56,-50.05069 0.9991,-0.029 1.6884,-1.0119 1.375,-1.9609 l -2.748,-8.3184 c -0.1907,-0.577 -0.712,-0.981 -1.3184,-1.0215 0,0 -1.2177,-0.08 -3.5,-0.09 z m 62.531,-0.1387 c -1.4649,0.021 -2.0262,1.9197 -0.8086,2.7344 v 0 c 0.088,0.059 0.1813,0.1077 0.2793,0.1465 26.227,10.663 48.975,24.75669 66.609,44.13069 0.016,0.017 0.032,0.034 0.049,0.051 v 0 c 0.3039,0.3035 0.7237,0.4615 1.1523,0.4336 l 4.2793,-0.2793 c 1.214,-0.08 1.8281,-1.5003 1.0547,-2.4394 0,0 -24.778,-30.02769 -72.021,-44.66169 0,0 -0.01,-0.01 -0.016,-0.01 -0.024,-0.01 -0.048,-0.017 -0.072,-0.025 -0.014,0 -0.027,-0.01 -0.041,-0.014 -0.1515,-0.048 -0.3098,-0.072 -0.4688,-0.07 z m 74.68,63.22469 c 0.858,0.1729 2.4764,3.3569 3.9629,5.6309 0.1305,0.1848 0.2634,0.3816 0.3887,0.5371 0,0.014 0,0.024 0.012,0.037 0.1679,0.2397 0.3353,0.488 0.4961,0.6875 0.081,0.4756 0.2162,0.7661 -0.8965,0.5371 -0.094,-0.4888 -0.2539,-0.6308 -0.2539,-0.6308 0,0 -2.6864,-1.5969 -3.5098,-2.7305 -0.8241,-1.1335 -0.9681,-3.1153 -0.5664,-3.8672 0.097,-0.1681 0.2212,-0.229 0.3672,-0.2012 z"
       filter="url(#a)"
       opacity="0.2"
       id="path16017"
       style="filter:url(#a-6)" /><g
       transform="translate(-2346.7594,794.08955)"
       fill="#ffffff"
       id="g16023"><path
         d="m 69.929,127.71 c -29.464,0.0337 -48.949,2.4206 -48.949,2.4206 0,0 107.73,-5.1706 194.03,29.769 2.9338,13.122 11.759,34.976 16.513,45.481 -13.602,9.4041 -28.94,18.249 -31.328,49.612 -2.3877,31.362 24.576,58.947 58.013,59.798 31.751,1.6913 53.688,1.9323 80.277,15.718 25.38,14.034 46.192,56.794 48.251,95.252 2.2244,-28.534 -8.4845,-89.895 -58.453,-108.53 69.826,12.219 75.982,63.973 75.984,63.994 0,0 5.2056,-59.754 -88.677,-73.531 -11.899,-1.7458 -26.947,-3.0899 -42.168,-3.1283 -75.246,0.99487 -77.989,-86.786 -21.288,-91.218 23.499,-1.9389 51.556,10.738 78.986,23.512 -0.10182,3.4068 0.0404,6.4339 2.2787,9.2314 2.2375,2.7966 10.832,5.8474 13.579,7.4233 2.7464,1.5764 11.545,7.1715 16.937,14.189 1.1692,-2.1872 10.933,-8.5432 10.933,-8.5432 0,0 -2.3391,0.0507 -7.781,-1.9832 -5.4426,-2.0339 -11.9,-8.1876 -12.053,-8.5432 -0.15246,-0.35625 -0.25501,-0.91601 1.0169,-1.1705 0.96572,-0.81305 -1.2209,-3.4575 -2.1873,-4.4232 -0.96572,-0.96636 -7.4247,-11.95 -7.5769,-12.204 -0.15245,-0.25447 -0.20376,-0.50931 -0.66105,-0.81465 -1.4244,-0.45805 -7.6799,0.66106 -7.6799,0.66106 0,0 -9.6211,-4.7252 -12.937,-14.913 0.0482,1.7844 -1.6497,3.734 0,7.8335 -5.0162,-2.122 -9.325,-5.7416 -12.723,-14.685 -2.0227,5.0868 0,8.3215 0,8.3215 0,0 -11.811,-3.3016 -13.701,-14.195 -2.0742,4.8902 0,7.8316 0,7.8316 0,0 -19.258,-10.048 -51.255,-10.194 -21.422,-1.965 -25.882,-39.65 -23.897,-45.994 0,0 -30.899,-16.285 -91.723,-23.479 -22.809,-2.6982 -44.081,-3.5238 -61.76,-3.5036 z m 71.276,32.521 c -9.2697,0.0699 -19.22,0.41577 -29.674,1.1588 -55.751,3.9628 -112.04,23.477 -112.04,23.477 0,0 115.18,-28.98 211.77,-11.971 h 0.002 l -2.512,-8.1057 c 0,0 -27.373,-4.5594 -67.542,-4.5594 z m 68.293,17.263 c -9.75,-0.0412 -40.02,1.1848 -85.564,15.436 -57.124,17.874 -89.522,43.21 -89.522,43.21 0,0 85.141,-47.539 181.24,-50.24 l -2.7492,-8.3176 c 0,0 -1.1564,-0.0779 -3.4064,-0.0875 z m 62.559,-0.13932 c 26.38,10.723 49.34,24.931 67.165,44.514 l 0.002,0.002 4.2794,-0.27998 c 0,0 -24.518,-29.746 -71.446,-44.236 z m 74.662,61.731 c 0.85796,0.17286 2.4779,3.3567 3.9644,5.6306 0.13054,0.18477 0.26356,0.38112 0.38886,0.53662 0.002,0.0138 0.003,0.0234 0.006,0.037 0.16796,0.23967 0.33693,0.4887 0.49774,0.68826 0.0812,0.47558 0.21641,0.76558 -0.89631,0.53663 -0.0936,-0.48886 -0.25471,-0.62995 -0.25471,-0.62995 0,0 -2.686,-1.5982 -3.5094,-2.7317 -0.82408,-1.1335 -0.96948,-3.1153 -0.56774,-3.8672 0.0978,-0.16967 0.2236,-0.23004 0.37137,-0.20027 z"
         filter="url(#f)"
         opacity="0.5"
         id="path16019" /><path
         d="m 69.929,127.71 c -29.464,0.0337 -48.949,2.4206 -48.949,2.4206 0,0 107.73,-5.1706 194.03,29.769 2.9338,13.122 11.759,34.976 16.513,45.481 -13.602,9.4041 -28.94,18.249 -31.328,49.612 -2.3877,31.362 24.576,58.947 58.013,59.798 31.751,1.6913 53.688,1.9323 80.277,15.718 25.38,14.034 46.192,56.794 48.251,95.252 2.2244,-28.534 -8.4845,-89.895 -58.453,-108.53 69.826,12.219 75.982,63.973 75.984,63.994 0,0 5.2056,-59.754 -88.677,-73.531 -11.899,-1.7458 -26.947,-3.0899 -42.168,-3.1283 -75.246,0.99487 -77.989,-86.786 -21.288,-91.218 23.499,-1.9389 51.556,10.738 78.986,23.512 -0.10182,3.4068 0.0404,6.4339 2.2787,9.2314 2.2375,2.7966 10.832,5.8474 13.579,7.4233 2.7464,1.5764 11.545,7.1715 16.937,14.189 1.1692,-2.1872 10.933,-8.5432 10.933,-8.5432 0,0 -2.3391,0.0507 -7.781,-1.9832 -5.4426,-2.0339 -11.9,-8.1876 -12.053,-8.5432 -0.15246,-0.35625 -0.25501,-0.91601 1.0169,-1.1705 0.96572,-0.81305 -1.2209,-3.4575 -2.1873,-4.4232 -0.96572,-0.96636 -7.4247,-11.95 -7.5769,-12.204 -0.15245,-0.25447 -0.20376,-0.50931 -0.66105,-0.81465 -1.4244,-0.45805 -7.6799,0.66106 -7.6799,0.66106 0,0 -9.6211,-4.7252 -12.937,-14.913 0.0482,1.7844 -1.6497,3.734 0,7.8335 -5.0162,-2.122 -9.325,-5.7416 -12.723,-14.685 -2.0227,5.0868 0,8.3215 0,8.3215 0,0 -11.811,-3.3016 -13.701,-14.195 -2.0742,4.8902 0,7.8316 0,7.8316 0,0 -19.258,-10.048 -51.255,-10.194 -21.422,-1.965 -25.882,-39.65 -23.897,-45.994 0,0 -30.899,-16.285 -91.723,-23.479 -22.809,-2.6982 -44.081,-3.5238 -61.76,-3.5036 z m 71.276,32.521 c -9.2697,0.0699 -19.22,0.41577 -29.674,1.1588 -55.751,3.9628 -112.04,23.477 -112.04,23.477 0,0 115.18,-28.98 211.77,-11.971 h 0.002 l -2.512,-8.1057 c 0,0 -27.373,-4.5594 -67.542,-4.5594 z m 68.293,17.263 c -9.75,-0.0412 -40.02,1.1848 -85.564,15.436 -57.124,17.874 -89.522,43.21 -89.522,43.21 0,0 85.141,-47.539 181.24,-50.24 l -2.7492,-8.3176 c 0,0 -1.1564,-0.0779 -3.4064,-0.0875 z m 62.559,-0.13932 c 26.38,10.723 49.34,24.931 67.165,44.514 l 0.002,0.002 4.2794,-0.27998 c 0,0 -24.518,-29.746 -71.446,-44.236 z m 74.662,61.731 c 0.85796,0.17286 2.4779,3.3567 3.9644,5.6306 0.13054,0.18477 0.26356,0.38112 0.38886,0.53662 0.002,0.0138 0.003,0.0234 0.006,0.037 0.16796,0.23967 0.33693,0.4887 0.49774,0.68826 0.0812,0.47558 0.21641,0.76558 -0.89631,0.53663 -0.0936,-0.48886 -0.25471,-0.62995 -0.25471,-0.62995 0,0 -2.686,-1.5982 -3.5094,-2.7317 -0.82408,-1.1335 -0.96948,-3.1153 -0.56774,-3.8672 0.0978,-0.16967 0.2236,-0.23004 0.37137,-0.20027 z"
         id="path16021" /></g></g><path
     id="path25057"
     style="opacity:0.48688832;fill:#ffffff;fill-opacity:1;filter:url(#filter25059);stroke:none"
     d="m 561.61821,259.77329 c -0.98776,0.008 -1.85472,0.63147 -2.18281,1.56011 -0.10726,0.30193 -0.13849,0.6078 -0.13849,0.92449 v 31.12885 c 0.0365,1.29708 1.05106,2.30828 2.33629,2.31149 2.69406,0.004 30.58521,-0.009 30.58521,-0.009 l -0.0103,-2.40916 h -30.43484 c -0.0429,-0.25878 -0.0322,-30.72303 0.01,-30.86271 0.24789,-0.0346 65.47838,-0.0222 65.62183,0.0114 0.0394,0.23496 0.0282,30.70227 -0.015,30.86271 h -5.21777 v 2.40916 c 0,0 0.21261,1.8e-4 0.31006,0.004 h 5.14232 c 0.977,-0.01 1.84266,-0.62251 2.17558,-1.54358 0.10725,-0.2934 0.13797,-0.59606 0.13797,-0.90537 v -31.18776 c -0.0205,-1.03028 -0.72168,-1.93528 -1.71359,-2.20916 l -0.002,-0.002 c -0.26266,-0.0703 -0.52494,-0.0832 -0.79633,-0.0832 z m 30.37799,9.14001 c -0.0204,0.0392 -0.0353,0.0678 -0.0434,0.0946 -2.21084,5.9285 -4.41947,11.85946 -6.62956,17.78703 -0.01,0.01 -0.01,0.0279 -0.01,0.0393 v 0.0191 c 0,0.008 0.01,0.0112 0.0114,0.0202 h 3.03495 l 0.006,10e-4 c 0.0234,-0.0676 0.0504,-0.12568 0.0708,-0.18862 0.46992,-1.33504 0.94008,-2.66772 1.41128,-4.00389 0.0784,-0.21476 0.15654,-0.43082 0.22738,-0.64647 0.028,-0.09 0.0735,-0.13698 0.16846,-0.12558 0.0307,0.004 0.0664,0 0.0977,0 h 6.63371 c 0.59965,1.66136 1.19526,3.3104 1.78852,4.95991 h 3.10523 c -2.2401,-6.00194 -4.47093,-11.97988 -6.69726,-17.95653 z m -11.67215,0.0594 v 0.001 c -0.17306,0 -0.28217,0.0502 -0.39636,0.18448 -2.31222,2.73823 -4.62989,5.47689 -6.94738,8.21191 -0.0307,0.035 -0.0707,0.0666 -0.13746,0.12815 v -6.81198 c 0,-0.5638 0.01,-1.12936 0,-1.69344 h -2.90783 v 17.86144 c 0.23085,0.0405 2.75624,0.0318 2.91196,-0.0103 v -0.22737 l -0.008,-10e-4 v -6.23011 c 0,-0.14052 0.0392,-0.23906 0.154,-0.32815 0.48118,-0.3805 0.9561,-0.77222 1.43092,-1.16065 0.0474,-0.0352 0.0934,-0.0664 0.15244,-0.10956 0.0512,0.0662 0.0941,0.12031 0.13385,0.17984 0.80715,1.16447 1.61496,2.3277 2.42155,3.49022 0.98976,1.43213 1.98108,2.85801 2.96881,4.28346 0.0549,0.0827 0.10523,0.14521 0.22686,0.14521 1.03999,-0.004 2.07894,-0.004 3.11764,-0.004 0.0344,0 0.0698,-0.0114 0.12454,-0.0238 -2.29993,-3.34959 -4.59046,-6.67556 -6.88795,-10.02212 0.46222,-0.53657 0.90935,-1.05316 1.35599,-1.58234 0.44781,-0.5181 0.89393,-1.03788 1.34101,-1.55959 0.44641,-0.52039 0.88979,-1.04179 1.33738,-1.5627 0.44666,-0.52212 0.89426,-1.04307 1.33584,-1.56372 0.44467,-0.51673 0.88568,-1.03368 1.35702,-1.59112 h -0.262 c -0.94118,0 -1.88177,0.006 -2.82308,-0.004 z m 26.43611,0.0191 -2.87218,5.2e-4 c -0.0485,0.22333 -0.0363,17.73578 0.0103,17.88263 h 10.46034 v -2.48822 h -5.04569 c -0.42419,0 -0.852,0.004 -1.27434,0 -0.41627,-0.004 -0.8307,0.0154 -1.26245,-0.009 v -14.00329 l -0.003,-0.003 c 0,-0.46254 0.0175,-0.9211 -0.0129,-1.37924 z m 9.58804,0.006 v 17.87229 h 2.89699 c 0.01,-0.03 0.0171,-0.0464 0.0171,-0.0667 v -17.70124 h -0.002 c 0,-0.0277 0,-0.0508 -0.01,-0.0796 0,-0.008 -0.01,-0.01 -0.01,-0.015 0,-0.004 -0.0114,-0.01 -0.0114,-0.01 z m -22.79654,2.50166 c 0.0307,0.0469 0.0552,0.0755 0.0636,0.10645 0.48575,1.81374 1.14937,3.57348 1.75234,5.35265 0.25047,0.74028 0.51032,1.47578 0.76533,2.2164 0.0194,0.0663 0.0385,0.1325 0.062,0.21445 h -5.21053 c 0.0233,-0.0772 0.0431,-0.14342 0.0656,-0.2098 0.61155,-1.77086 1.23188,-3.53365 1.82779,-5.30924 0.23911,-0.71362 0.41913,-1.44988 0.6227,-2.17764 0.0172,-0.0551 0.028,-0.11025 0.0512,-0.19327 z m 1.14257,20.47523 v 4.91444 h 1.03921 v -1.74822 h 0.44752 c 0.47722,0 0.85329,-0.076 1.12861,-0.22738 0.27992,-0.15142 0.47963,-0.35114 0.59893,-0.59893 0.11931,-0.25238 0.1788,-0.52062 0.1788,-0.80512 0,-0.47722 -0.14661,-0.85116 -0.44028,-1.12189 -0.28909,-0.27532 -0.75065,-0.4129 -1.38389,-0.4129 z m 4.28811,0 v 3.16622 c 0,0.54605 0.16945,0.9864 0.50901,1.32137 0.33956,0.33039 0.83514,0.49558 1.48673,0.49558 0.45888,0 0.83759,-0.0781 1.13585,-0.2341 0.30285,-0.1606 0.52754,-0.37626 0.67438,-0.64699 0.15143,-0.27532 0.22737,-0.58286 0.22737,-0.92243 v -3.17965 h -1.03921 v 3.00085 c 0,0.38086 -0.0781,0.66079 -0.23409,0.83975 -0.15143,0.17895 -0.39683,0.2682 -0.73639,0.2682 -0.3258,0 -0.57171,-0.0823 -0.73691,-0.24753 -0.16519,-0.1652 -0.24753,-0.4499 -0.24753,-0.8537 v -3.00757 z m 5.23792,0 v 4.91444 h 1.03922 v -1.8862 h 0.55758 l 1.16996,1.8862 h 1.15652 l -1.44539,-2.14096 c 0.1606,-0.0734 0.30986,-0.16744 0.44752,-0.28216 0.14225,-0.1193 0.25433,-0.26114 0.33693,-0.42633 0.0872,-0.16978 0.13074,-0.36736 0.13074,-0.59221 0,-0.49557 -0.16042,-0.86474 -0.48163,-1.10794 -0.31662,-0.2432 -0.81006,-0.36484 -1.48001,-0.36484 z m 4.54288,0 v 4.91444 h 1.03921 v -1.74822 h 0.44752 c 0.47722,0 0.85329,-0.076 1.12861,-0.22738 0.27991,-0.15142 0.47963,-0.35114 0.59893,-0.59893 0.11931,-0.25238 0.1788,-0.52062 0.1788,-0.80512 0,-0.47722 -0.14661,-0.85116 -0.44028,-1.12189 -0.28909,-0.27532 -0.75066,-0.4129 -1.3839,-0.4129 z m 4.32221,0 v 4.91444 h 3.03548 v -0.86042 h -1.99626 v -4.05402 z m 3.88917,0 v 4.91444 h 2.82877 v -0.86042 h -1.78955 v -1.26659 h 1.66553 v -0.85318 h -1.66553 v -1.08107 h 1.78955 v -0.85318 z m -21.24108,0.85318 h 0.47491 c 0.55064,0 0.82579,0.23901 0.82579,0.71624 0,0.26155 -0.0871,0.45171 -0.26148,0.57102 -0.16979,0.11472 -0.40138,0.17208 -0.69505,0.17208 h -0.34417 z m 9.52604,0 h 0.31677 c 0.33957,0 0.5871,0.0505 0.74311,0.15141 0.16061,0.0964 0.24081,0.26156 0.24081,0.49558 0,0.22484 -0.0754,0.39481 -0.22686,0.50953 -0.14684,0.11471 -0.39223,0.17208 -0.73639,0.17208 h -0.33744 z m 4.54287,0 h 0.47491 c 0.55064,0 0.82579,0.23901 0.82579,0.71624 0,0.26155 -0.0871,0.45171 -0.26149,0.57102 -0.16978,0.11472 -0.40137,0.17208 -0.69504,0.17208 h -0.34417 z"
     transform="matrix(1.9789386,0,0,1.9789386,-492.06275,-279.354)" /><path
     id="path1792"
     style="opacity:1;mix-blend-mode:overlay;fill:url(#meshgradient1823);fill-opacity:1;stroke-width:1.97894;filter:url(#filter1818)"
     d="m 684.68016,239.91455 c -32.36856,-0.006 -64.76315,0.005 -65.00843,0.0393 -0.043,0.142 -0.0683,16.01891 -0.0724,31.59497 0.005,-15.00735 0.031,-29.87072 0.0724,-30.00747 0.49056,-0.0685 129.57795,-0.0444 129.86183,0.0222 0.0378,0.22542 0.0511,14.62561 0.046,29.32327 0.007,-15.2852 -0.007,-30.67652 -0.046,-30.91077 -0.14194,-0.0333 -32.48484,-0.0556 -64.8534,-0.0615 z m -22.2125,13.01955 c -0.44072,0.51668 -2.24912,2.64219 -2.6852,3.14894 -0.87386,1.03033 -1.75985,2.06113 -2.64377,3.09439 -0.88575,1.03084 -1.76346,2.0625 -2.64687,3.09231 -0.88475,1.03242 -1.76739,2.06134 -2.65358,3.08664 -0.88388,1.04723 -1.76885,2.06923 -2.68356,3.13107 0.20199,0.29422 0.40371,0.58702 0.60565,0.88109 0.69901,-0.81096 1.39347,-1.61374 2.07791,-2.42466 0.88619,-1.0253 1.76883,-2.05422 2.65358,-3.08664 0.88341,-1.02981 1.76112,-2.06147 2.64687,-3.09231 0.88392,-1.03326 1.76991,-2.06406 2.64377,-3.09439 0.87996,-1.02257 1.75235,-2.04601 2.6851,-3.14916 z m 46.23997,2.28184 c -10e-4,0.15949 -0.004,0.31807 -0.004,0.47801 l 0.006,0.006 v 0.71727 c 0.004,-0.40109 0.007,-0.80198 -0.003,-1.20148 z m -67.14577,0.22014 c -0.002,0.29392 -0.004,0.58805 -0.004,0.8816 v 1.5875 c 0,-0.82208 0.006,-1.64579 0.004,-2.4691 z m 40.97786,2.49029 c -0.0459,0.16429 -0.0673,0.27386 -0.10128,0.38292 -0.40285,1.4402 -0.75931,2.89711 -1.23249,4.3093 -1.17927,3.51379 -2.4066,7.0019 -3.61683,10.50634 -0.0444,0.13136 -0.0841,0.2627 -0.13022,0.41547 h 0.5364 c 1.07786,-3.11055 2.16302,-6.21273 3.21065,-9.33431 0.47318,-1.41219 0.82964,-2.8691 1.23249,-4.3093 0.034,-0.10906 0.0554,-0.21863 0.10128,-0.38292 0.0608,0.0928 0.10901,0.14958 0.12558,0.21084 0.96126,3.58927 2.27476,7.07178 3.468,10.59264 0.36423,1.0765 0.74001,2.14902 1.11311,3.22305 h 0.524 c -0.0465,-0.16217 -0.0841,-0.29307 -0.12247,-0.42426 -0.50465,-1.46565 -1.01897,-2.9213 -1.51464,-4.38629 -1.19324,-3.52086 -2.50674,-7.00337 -3.468,-10.59264 -0.0166,-0.0613 -0.0648,-0.11804 -0.12558,-0.21084 z m 20.39566,13.2395 c 0.004,9.15003 0.0313,18.62293 0.0796,18.77508 h 20.70054 v -1.5875 h -20.70054 c -0.0452,-0.14259 -0.0733,-8.59899 -0.0796,-17.18758 z m -57.94685,1.18288 c -0.11684,0.0854 -0.20799,0.14734 -0.30179,0.21704 -0.93964,0.76867 -1.87912,1.54403 -2.83136,2.29701 -0.22725,0.17629 -0.30489,0.37098 -0.30489,0.64906 v 1.5875 c 0,-0.27808 0.0776,-0.47277 0.30489,-0.64906 0.95224,-0.75298 1.89172,-1.52834 2.83136,-2.29701 0.0938,-0.0697 0.18495,-0.13165 0.30179,-0.21704 0.10126,0.13101 0.18645,0.23824 0.2651,0.35605 1.5973,2.30441 3.19577,4.6065 4.79195,6.90707 1.95867,2.8341 3.92044,5.65558 5.8751,8.47648 0.10859,0.16365 0.20836,0.28732 0.44906,0.28732 2.05808,-0.008 4.11412,-0.008 6.16965,-0.008 0.0681,0 0.13818,-0.0225 0.2465,-0.047 l -2e-4,-1.58748 c -1.78536,1.2e-4 -4.62851,0.0478 -6.41595,0.055 -0.2407,0 -0.34047,-0.12367 -0.44906,-0.28732 -1.95466,-2.8209 -3.91643,-5.64238 -5.8751,-8.47648 -1.59618,-2.30057 -3.19465,-4.60266 -4.79195,-6.90707 -0.0787,-0.11781 -0.16384,-0.22504 -0.2651,-0.35605 z m 31.0043,6.17946 c -0.18791,-0.0226 -0.27791,0.0705 -0.33331,0.24857 -0.1402,0.42676 -0.29496,0.85451 -0.4501,1.27951 -0.93247,2.64418 -1.86266,5.2816 -2.79259,7.92354 -0.0404,0.12457 -0.0937,0.23932 -0.14005,0.37311 l -0.0119,-0.002 -6.00611,1.6e-4 -0.003,1.43179 -0.0196,0.078 v 0.0377 l 0.0227,0.0398 h 6.00584 l 0.0119,0.002 c 0.0464,-0.13379 0.0996,-0.24854 0.14005,-0.37311 0.92993,-2.64194 1.86012,-5.27936 2.79259,-7.92354 0.15514,-0.425 0.3099,-0.85275 0.4501,-1.27951 0.0554,-0.17811 0.1454,-0.27113 0.33331,-0.24857 0.0608,0.008 0.13133,0 0.19327,0 h 13.12789 c 1.18666,3.28773 2.36529,6.55115 3.53931,9.81543 h 6.14537 l -4e-5,-1.58742 -6.14533,-8e-5 c -1.17402,-3.26428 -2.35265,-6.5277 -3.53931,-9.81543 H 676.1861 c -0.0619,0 -0.13247,0.008 -0.19327,0 z m 57.42647,9.68417 c 0,0.0402 -0.0138,0.0725 -0.0336,0.13177 h -5.73298 v 1.5875 h 5.73298 c 0.0198,-0.0593 0.0336,-0.0916 0.0336,-0.13177 z m -91.86881,0.0822 c -0.36462,0.082 -5.29298,0.0983 -5.74693,0.0186 v 1.5875 c 0.45683,0.0802 5.45479,0.0631 5.76295,-0.0202 v -0.4501 l -0.016,-0.002 z m 45.3068,11.83959 v 1.5875 h 0.93948 c 0.71347,0 1.18883,0.20675 1.43505,0.61185 0.12776,-0.2106 0.19947,-0.46686 0.19947,-0.78187 0,-0.94438 -0.54484,-1.41748 -1.63452,-1.41748 z m 18.85156,0 v 1.5875 h 0.62684 c 0.67197,0 1.16146,0.10006 1.47019,0.29972 0.091,0.0547 0.16553,0.12352 0.23048,0.20051 0.16344,-0.20989 0.24649,-0.47842 0.24649,-0.80719 0,-0.46311 -0.15913,-0.79005 -0.47697,-0.98082 -0.30873,-0.19966 -0.79822,-0.29972 -1.47019,-0.29972 z m 8.98963,0 v 1.5875 h 0.94 c 0.71312,0 1.1882,0.20662 1.43453,0.61133 0.12762,-0.21053 0.19948,-0.46653 0.19948,-0.78135 0,-0.94438 -0.54433,-1.41748 -1.63401,-1.41748 z m 16.25017,0 v 1.5875 h 3.54139 v -1.5875 z m 23.59753,0.84698 c 0,0.6121 -0.0606,1.21101 -0.27285,1.79162 -0.65883,1.82275 -2.37176,3.03479 -4.30517,3.05459 h -10.17664 c -0.19284,-0.008 -0.6134,-0.008 -0.6134,-0.008 v 1.5875 c 0,0 0.42056,6.5e-4 0.6134,0.008 h 10.17664 c 1.93341,-0.0198 3.64634,-1.23184 4.30517,-3.05459 0.21224,-0.58061 0.27285,-1.17952 0.27285,-1.79162 z m -139.79457,0.2589 v 1.5875 c 0.0723,2.56683 2.08012,4.56803 4.62349,4.57439 5.33139,0.008 60.52602,-0.0176 60.52602,-0.0176 l -0.007,-1.5875 c -0.0122,1e-5 -55.18851,0.0256 -60.51931,0.0176 -2.54337,-0.006 -4.55119,-2.00756 -4.62349,-4.57439 z m 95.51769,0.86247 c -0.0413,0.15113 -0.0925,0.29621 -0.16124,0.42995 -0.16346,0.3269 -0.38511,0.60725 -0.66662,0.84336 -0.27241,0.22701 -0.56793,0.41337 -0.88574,0.55862 l 0.75758,1.12242 c 0.0421,-0.0323 0.0871,-0.0593 0.12816,-0.0935 0.28151,-0.23611 0.50316,-0.51646 0.66662,-0.84336 0.17256,-0.33598 0.2589,-0.72705 0.2589,-1.17202 0,-0.30729 -0.0353,-0.58722 -0.0977,-0.84543 z m -18.8371,0.16847 c -0.0588,0.27687 -0.14798,0.54587 -0.27078,0.80564 -0.23609,0.49035 -0.63099,0.88529 -1.18494,1.18494 -0.54484,0.29977 -1.28906,0.4501 -2.23346,0.4501 h -0.88573 v 1.5875 h 0.88573 c 0.9444,0 1.68862,-0.15033 2.23346,-0.4501 0.55395,-0.29965 0.94885,-0.69459 1.18494,-1.18494 0.23611,-0.49943 0.35398,-1.03073 0.35398,-1.59371 0,-0.28607 -0.0299,-0.55086 -0.0832,-0.79943 z m 27.8412,0 c -0.0589,0.27687 -0.14747,0.54587 -0.27027,0.80564 -0.2361,0.49035 -0.63155,0.88529 -1.18546,1.18494 -0.54485,0.29977 -1.28906,0.4501 -2.23345,0.4501 h -0.88574 v 1.5875 h 0.88574 c 0.94439,0 1.6886,-0.15033 2.23345,-0.4501 0.55391,-0.29965 0.94936,-0.69459 1.18546,-1.18494 0.2361,-0.49943 0.35347,-1.03073 0.35347,-1.59371 0,-0.28609 -0.0299,-0.55085 -0.0832,-0.79943 z m 11.67525,1.69085 v 1.5875 h 3.29593 v -1.5875 z m -25.2398,0.47646 v 1.58802 h 1.10329 l 2.31511,3.73259 h 2.28875 l -1.07177,-1.5875 h -1.21698 l -2.31511,-3.73311 z m -12.4225,0.27337 v 1.5875 c 0,1.0806 0.33572,1.95194 1.00769,2.61483 0.67197,0.65381 1.65248,0.98081 2.94194,0.98081 0.90808,0 1.65768,-0.15482 2.24793,-0.46353 0.59932,-0.31782 1.04369,-0.74426 1.33428,-1.28003 0.29967,-0.54484 0.4501,-1.15376 0.4501,-1.82573 v -1.5875 c 0,0.67197 -0.15043,1.28089 -0.4501,1.82573 -0.29059,0.53577 -0.73496,0.96221 -1.33428,1.28003 -0.59025,0.30871 -1.33985,0.46353 -2.24793,0.46353 -1.28946,0 -2.26997,-0.327 -2.94194,-0.98081 -0.67197,-0.66289 -1.00769,-1.53423 -1.00769,-2.61483 z m -8.48578,3.45974 v 1.5875 h 2.05672 v -1.5875 z m 18.85156,0 v 1.5875 h 2.05672 v -1.5875 z m 8.99015,0 v 1.5875 h 2.0562 v -1.5875 z m 8.55348,0 v 1.5875 h 6.00687 v -1.5875 z m 7.69617,0 v 1.5875 h 5.59811 v -1.5875 z"
     sodipodi:nodetypes="sccccccsccccccccccccccccccccscccccccccccccccccccccccccsccsccccccccsccccccsssccccccccccccccccsccccccssscccccsccccccccccscsscccsccscscccscsscccccccccccccccscccccccccsccccccssscccsccsccsccccsccsccsccccccccccccccccscsccscccsccccccccccccccccccccccccccc" /><path
     id="path18131"
     style="opacity:1;mix-blend-mode:screen;fill:url(#meshgradient1746);fill-opacity:1;stroke-width:1.97894;filter:url(#filter1744)"
     d="m 619.34523,234.7212 c -1.95473,0.0158 -3.67039,1.24965 -4.31965,3.08736 -0.21227,0.59751 -0.27407,1.20282 -0.27407,1.82953 v 61.60207 c 0.0723,2.56684 2.07999,4.56793 4.62337,4.57429 5.33139,0.008 60.52626,-0.0178 60.52626,-0.0178 l -0.0204,-4.76756 h -60.22869 c -0.0849,-0.51211 -0.0638,-60.79901 0.0198,-61.07543 0.49056,-0.0685 129.5777,-0.044 129.86158,0.0226 0.078,0.46497 0.0558,60.75793 -0.0297,61.07543 h -10.32565 v 4.76756 c 0,0 0.42075,3.8e-4 0.61359,0.008 h 10.17635 c 1.93341,-0.0198 3.6465,-1.23189 4.30533,-3.05464 0.21224,-0.58061 0.27304,-1.17956 0.27304,-1.79166 v -61.7186 c -0.0406,-2.03887 -1.42817,-3.82983 -3.39109,-4.37182 l -0.004,-0.004 c -0.51979,-0.13911 -1.03883,-0.16464 -1.57589,-0.16464 z m 60.11617,18.08751 c -0.0404,0.0775 -0.0698,0.13418 -0.0859,0.18722 -4.37512,11.73215 -8.74586,23.46916 -13.11949,35.19944 -0.0198,0.0198 -0.0198,0.0552 -0.0198,0.0778 v 0.0378 c 0,0.0159 0.0198,0.0224 0.0226,0.0399 h 6.00598 l 0.0119,0.002 c 0.0464,-0.13379 0.0997,-0.24871 0.14011,-0.37328 0.92994,-2.64195 1.86037,-5.27925 2.79284,-7.92344 0.15514,-0.425 0.30977,-0.85257 0.44997,-1.27933 0.0554,-0.17811 0.14545,-0.27105 0.33337,-0.24849 0.0608,0.008 0.1314,0 0.19334,0 h 13.12771 c 1.18667,3.28773 2.36534,6.55106 3.53937,9.81534 h 6.14506 c -4.43303,-11.87746 -8.84769,-23.70745 -13.25347,-35.53488 z m -23.09846,0.11755 v 0.002 c -0.34248,0 -0.5584,0.0994 -0.78438,0.3651 -4.57574,5.41879 -9.16226,10.83841 -13.74844,16.25084 -0.0608,0.0692 -0.13991,0.1318 -0.27202,0.25362 v -13.4801 c 0,-1.11572 0.0198,-2.23492 0,-3.35121 h -5.75441 v 35.34671 c 0.45683,0.0802 5.45442,0.063 5.76258,-0.0203 v -0.44997 l -0.0158,-0.002 v -12.32902 c 0,-0.27808 0.0775,-0.47308 0.30475,-0.64937 0.95224,-0.75299 1.89207,-1.52819 2.83171,-2.29686 0.0938,-0.0697 0.18483,-0.13141 0.30167,-0.2168 0.10126,0.13101 0.18623,0.23807 0.26488,0.35588 1.59731,2.30442 3.19592,4.60637 4.7921,6.90694 1.95867,2.8341 3.92043,5.65581 5.87509,8.47672 0.10859,0.16365 0.20824,0.28735 0.44894,0.28735 2.05808,-0.008 4.1141,-0.008 6.16963,-0.008 0.0681,0 0.13813,-0.0226 0.24645,-0.0471 -4.55143,-6.62866 -9.08424,-13.21052 -13.63083,-19.83318 0.91471,-1.06184 1.79954,-2.08411 2.68342,-3.13134 0.88619,-1.0253 1.76903,-2.05392 2.65378,-3.08634 0.88341,-1.02982 1.76084,-2.06163 2.64659,-3.09247 0.88392,-1.03326 1.76969,-2.0642 2.64355,-3.09453 0.87997,-1.02257 1.75271,-2.04558 2.68546,-3.14873 h -0.5185 c -1.86253,0 -3.72389,0.0119 -5.58669,-0.008 z m 52.31543,0.0378 -5.68386,9.6e-4 c -0.096,0.44195 -0.0718,35.09802 0.0204,35.38863 h 20.70036 v -4.92404 h -9.9851 c -0.83944,0 -1.68605,0.008 -2.52184,0 -0.82377,-0.008 -1.64391,0.0305 -2.49831,-0.0179 v -27.71162 l -0.006,-0.006 c 0,-0.91535 0.0347,-1.82282 -0.0254,-2.72945 z m 18.97415,0.0119 v 35.36818 h 5.73297 c 0.0198,-0.0593 0.0339,-0.0918 0.0339,-0.13199 v -35.02972 h -0.004 c 0,-0.0548 0,-0.10056 -0.0198,-0.15752 0,-0.0158 -0.0198,-0.0198 -0.0198,-0.0297 0,-0.008 -0.0226,-0.0198 -0.0226,-0.0198 z m -45.11296,4.95063 c 0.0608,0.0928 0.10929,0.1494 0.12586,0.21066 0.96127,3.58927 2.27454,7.0717 3.46778,10.59256 0.49567,1.465 1.00989,2.92048 1.51454,4.38613 0.0384,0.13119 0.0762,0.26223 0.12268,0.4244 h -10.31131 c 0.0461,-0.15277 0.0854,-0.28384 0.12981,-0.4152 1.21023,-3.50444 2.43783,-6.99287 3.6171,-10.50666 0.47318,-1.41219 0.82943,-2.86922 1.23228,-4.30942 0.034,-0.10906 0.0554,-0.21818 0.10126,-0.38247 z m 2.26108,40.51925 v 9.72535 h 2.05654 v -3.45962 h 0.8856 c 0.9444,0 1.68862,-0.1502 2.23346,-0.44997 0.55395,-0.29965 0.94915,-0.69489 1.18524,-1.18524 0.23611,-0.49943 0.35383,-1.03029 0.35383,-1.59327 0,-0.94441 -0.29012,-1.68441 -0.87128,-2.22017 -0.57209,-0.54484 -1.48549,-0.81708 -2.73864,-0.81708 z m 8.48591,0 v 6.26573 c 0,1.0806 0.33532,1.95202 1.00729,2.61491 0.67197,0.65382 1.6527,0.98072 2.94216,0.98072 0.90808,0 1.65753,-0.15455 2.24778,-0.46326 0.59932,-0.31782 1.04396,-0.74459 1.33455,-1.28036 0.29967,-0.54484 0.44995,-1.15344 0.44995,-1.82541 v -6.29233 h -2.05654 v 5.93849 c 0,0.7537 -0.15455,1.30764 -0.46325,1.6618 -0.29966,0.35415 -0.78529,0.53075 -1.45726,0.53075 -0.64474,0 -1.13138,-0.16287 -1.4583,-0.48985 -0.32691,-0.3269 -0.48986,-0.89031 -0.48986,-1.68942 v -5.95177 z m 10.36552,0 v 9.72535 h 2.05655 v -3.73268 h 1.10342 l 2.31527,3.73268 h 2.28868 l -2.86032,-4.23683 c 0.31781,-0.14525 0.61319,-0.33135 0.8856,-0.55836 0.28151,-0.23611 0.50331,-0.51678 0.66677,-0.84368 0.17256,-0.33598 0.25872,-0.727 0.25872,-1.17197 0,-0.98069 -0.31746,-1.71127 -0.95312,-2.19255 -0.62656,-0.48127 -1.60305,-0.72196 -2.92884,-0.72196 z m 8.99007,0 v 9.72535 h 2.05654 v -3.45962 h 0.88562 c 0.94439,0 1.68861,-0.1502 2.23346,-0.44997 0.55391,-0.29965 0.94914,-0.69489 1.18524,-1.18524 0.2361,-0.49943 0.35383,-1.03029 0.35383,-1.59327 0,-0.94441 -0.29013,-1.68441 -0.87128,-2.22017 -0.5721,-0.54484 -1.48552,-0.81708 -2.73866,-0.81708 z m 8.5534,0 v 9.72535 h 6.00703 v -1.70272 h -3.95048 v -8.02263 z m 7.69643,0 v 9.72535 h 5.59796 v -1.70272 h -3.54141 v -2.5065 h 3.29598 v -1.6884 h -3.29598 v -2.13937 h 3.54141 v -1.68836 z m -42.03479,1.68836 h 0.93981 c 1.08969,0 1.63418,0.47301 1.63418,1.4174 0,0.51759 -0.17236,0.89393 -0.51744,1.13002 -0.33601,0.22702 -0.79431,0.34055 -1.37546,0.34055 h -0.68109 z m 18.85144,0 h 0.62687 c 0.67198,0 1.16184,0.1 1.47057,0.29966 0.31784,0.19077 0.47655,0.51759 0.47655,0.9807 0,0.44496 -0.14921,0.7813 -0.44894,1.00832 -0.29059,0.22703 -0.77621,0.34055 -1.45728,0.34055 h -0.66777 z m 8.99006,0 h 0.93982 c 1.08968,0 1.63419,0.47301 1.63419,1.4174 0,0.51759 -0.17237,0.89393 -0.51747,1.13002 -0.336,0.22702 -0.7943,0.34055 -1.37544,0.34055 h -0.6811 z" /><g
     id="Color_Fill_3"
     transform="matrix(0.46577612,0,0,0.46577612,439.20672,426.40995)"
     style="stroke-width:1.17082">
	<g
   id="g25873"
   style="stroke-width:1.17082">
		
	</g>
</g><script
     id="mesh_polyfill"
     type="text/javascript">
!function(){const t=&quot;http://www.w3.org/2000/svg&quot;,e=&quot;http://www.w3.org/1999/xlink&quot;,s=&quot;http://www.w3.org/1999/xhtml&quot;,r=2;if(document.createElementNS(t,&quot;meshgradient&quot;).x)return;const n=(t,e,s,r)=&gt;{let n=new x(.5*(e.x+s.x),.5*(e.y+s.y)),o=new x(.5*(t.x+e.x),.5*(t.y+e.y)),i=new x(.5*(s.x+r.x),.5*(s.y+r.y)),a=new x(.5*(n.x+o.x),.5*(n.y+o.y)),h=new x(.5*(n.x+i.x),.5*(n.y+i.y)),l=new x(.5*(a.x+h.x),.5*(a.y+h.y));return[[t,o,a,l],[l,h,i,r]]},o=t=&gt;{let e=t[0].distSquared(t[1]),s=t[2].distSquared(t[3]),r=.25*t[0].distSquared(t[2]),n=.25*t[1].distSquared(t[3]),o=e&gt;s?e:s,i=r&gt;n?r:n;return 18*(o&gt;i?o:i)},i=(t,e)=&gt;Math.sqrt(t.distSquared(e)),a=(t,e)=&gt;t.scale(2/3).add(e.scale(1/3)),h=t=&gt;{let e,s,r,n,o,i,a,h=new g;return t.match(/(\w+\(\s*[^)]+\))+/g).forEach(t=&gt;{let l=t.match(/[\w.-]+/g),d=l.shift();switch(d){case&quot;translate&quot;:2===l.length?e=new g(1,0,0,1,l[0],l[1]):(console.error(&quot;mesh.js: translate does not have 2 arguments!&quot;),e=new g(1,0,0,1,0,0)),h=h.append(e);break;case&quot;scale&quot;:1===l.length?s=new g(l[0],0,0,l[0],0,0):2===l.length?s=new g(l[0],0,0,l[1],0,0):(console.error(&quot;mesh.js: scale does not have 1 or 2 arguments!&quot;),s=new g(1,0,0,1,0,0)),h=h.append(s);break;case&quot;rotate&quot;:if(3===l.length&amp;&amp;(e=new g(1,0,0,1,l[1],l[2]),h=h.append(e)),l[0]){r=l[0]*Math.PI/180;let t=Math.cos(r),e=Math.sin(r);Math.abs(t)&lt;1e-16&amp;&amp;(t=0),Math.abs(e)&lt;1e-16&amp;&amp;(e=0),a=new g(t,e,-e,t,0,0),h=h.append(a)}else console.error(&quot;math.js: No argument to rotate transform!&quot;);3===l.length&amp;&amp;(e=new g(1,0,0,1,-l[1],-l[2]),h=h.append(e));break;case&quot;skewX&quot;:l[0]?(r=l[0]*Math.PI/180,n=Math.tan(r),o=new g(1,0,n,1,0,0),h=h.append(o)):console.error(&quot;math.js: No argument to skewX transform!&quot;);break;case&quot;skewY&quot;:l[0]?(r=l[0]*Math.PI/180,n=Math.tan(r),i=new g(1,n,0,1,0,0),h=h.append(i)):console.error(&quot;math.js: No argument to skewY transform!&quot;);break;case&quot;matrix&quot;:6===l.length?h=h.append(new g(...l)):console.error(&quot;math.js: Incorrect number of arguments for matrix!&quot;);break;default:console.error(&quot;mesh.js: Unhandled transform type: &quot;+d)}}),h},l=t=&gt;{let e=[],s=t.split(/[ ,]+/);for(let t=0,r=s.length-1;t&lt;r;t+=2)e.push(new x(parseFloat(s[t]),parseFloat(s[t+1])));return e},d=(t,e)=&gt;{for(let s in e)t.setAttribute(s,e[s])},c=(t,e,s,r,n)=&gt;{let o,i,a=[0,0,0,0];for(let h=0;h&lt;3;++h)e[h]&lt;t[h]&amp;&amp;e[h]&lt;s[h]||t[h]&lt;e[h]&amp;&amp;s[h]&lt;e[h]?a[h]=0:(a[h]=.5*((e[h]-t[h])/r+(s[h]-e[h])/n),o=Math.abs(3*(e[h]-t[h])/r),i=Math.abs(3*(s[h]-e[h])/n),a[h]&gt;o?a[h]=o:a[h]&gt;i&amp;&amp;(a[h]=i));return a},u=[[1,0,0,0,0,0,0,0,0,0,0,0,0,0,0,0],[0,0,0,0,1,0,0,0,0,0,0,0,0,0,0,0],[-3,3,0,0,-2,-1,0,0,0,0,0,0,0,0,0,0],[2,-2,0,0,1,1,0,0,0,0,0,0,0,0,0,0],[0,0,0,0,0,0,0,0,1,0,0,0,0,0,0,0],[0,0,0,0,0,0,0,0,0,0,0,0,1,0,0,0],[0,0,0,0,0,0,0,0,-3,3,0,0,-2,-1,0,0],[0,0,0,0,0,0,0,0,2,-2,0,0,1,1,0,0],[-3,0,3,0,0,0,0,0,-2,0,-1,0,0,0,0,0],[0,0,0,0,-3,0,3,0,0,0,0,0,-2,0,-1,0],[9,-9,-9,9,6,3,-6,-3,6,-6,3,-3,4,2,2,1],[-6,6,6,-6,-3,-3,3,3,-4,4,-2,2,-2,-2,-1,-1],[2,0,-2,0,0,0,0,0,1,0,1,0,0,0,0,0],[0,0,0,0,2,0,-2,0,0,0,0,0,1,0,1,0],[-6,6,6,-6,-4,-2,4,2,-3,3,-3,3,-2,-1,-2,-1],[4,-4,-4,4,2,2,-2,-2,2,-2,2,-2,1,1,1,1]],f=t=&gt;{let e=[];for(let s=0;s&lt;16;++s){e[s]=0;for(let r=0;r&lt;16;++r)e[s]+=u[s][r]*t[r]}return e},p=(t,e,s)=&gt;{const r=e*e,n=s*s,o=e*e*e,i=s*s*s;return t[0]+t[1]*e+t[2]*r+t[3]*o+t[4]*s+t[5]*s*e+t[6]*s*r+t[7]*s*o+t[8]*n+t[9]*n*e+t[10]*n*r+t[11]*n*o+t[12]*i+t[13]*i*e+t[14]*i*r+t[15]*i*o},y=t=&gt;{let e=[],s=[],r=[];for(let s=0;s&lt;4;++s)e[s]=[],e[s][0]=n(t[0][s],t[1][s],t[2][s],t[3][s]),e[s][1]=[],e[s][1].push(...n(...e[s][0][0])),e[s][1].push(...n(...e[s][0][1])),e[s][2]=[],e[s][2].push(...n(...e[s][1][0])),e[s][2].push(...n(...e[s][1][1])),e[s][2].push(...n(...e[s][1][2])),e[s][2].push(...n(...e[s][1][3]));for(let t=0;t&lt;8;++t){s[t]=[];for(let r=0;r&lt;4;++r)s[t][r]=[],s[t][r][0]=n(e[0][2][t][r],e[1][2][t][r],e[2][2][t][r],e[3][2][t][r]),s[t][r][1]=[],s[t][r][1].push(...n(...s[t][r][0][0])),s[t][r][1].push(...n(...s[t][r][0][1])),s[t][r][2]=[],s[t][r][2].push(...n(...s[t][r][1][0])),s[t][r][2].push(...n(...s[t][r][1][1])),s[t][r][2].push(...n(...s[t][r][1][2])),s[t][r][2].push(...n(...s[t][r][1][3]))}for(let t=0;t&lt;8;++t){r[t]=[];for(let e=0;e&lt;8;++e)r[t][e]=[],r[t][e][0]=s[t][0][2][e],r[t][e][1]=s[t][1][2][e],r[t][e][2]=s[t][2][2][e],r[t][e][3]=s[t][3][2][e]}return r};class x{constructor(t,e){this.x=t||0,this.y=e||0}toString(){return`(x=${this.x}, y=${this.y})`}clone(){return new x(this.x,this.y)}add(t){return new x(this.x+t.x,this.y+t.y)}scale(t){return void 0===t.x?new x(this.x*t,this.y*t):new x(this.x*t.x,this.y*t.y)}distSquared(t){let e=this.x-t.x,s=this.y-t.y;return e*e+s*s}transform(t){let e=this.x*t.a+this.y*t.c+t.e,s=this.x*t.b+this.y*t.d+t.f;return new x(e,s)}}class g{constructor(t,e,s,r,n,o){void 0===t?(this.a=1,this.b=0,this.c=0,this.d=1,this.e=0,this.f=0):(this.a=t,this.b=e,this.c=s,this.d=r,this.e=n,this.f=o)}toString(){return`affine: ${this.a} ${this.c} ${this.e} \n       ${this.b} ${this.d} ${this.f}`}append(t){t instanceof g||console.error(&quot;mesh.js: argument to Affine.append is not affine!&quot;);let e=this.a*t.a+this.c*t.b,s=this.b*t.a+this.d*t.b,r=this.a*t.c+this.c*t.d,n=this.b*t.c+this.d*t.d,o=this.a*t.e+this.c*t.f+this.e,i=this.b*t.e+this.d*t.f+this.f;return new g(e,s,r,n,o,i)}}class w{constructor(t,e){this.nodes=t,this.colors=e}paintCurve(t,e){if(o(this.nodes)&gt;r){const s=n(...this.nodes);let r=[[],[]],o=[[],[]];for(let t=0;t&lt;4;++t)r[0][t]=this.colors[0][t],r[1][t]=(this.colors[0][t]+this.colors[1][t])/2,o[0][t]=r[1][t],o[1][t]=this.colors[1][t];let i=new w(s[0],r),a=new w(s[1],o);i.paintCurve(t,e),a.paintCurve(t,e)}else{let s=Math.round(this.nodes[0].x);if(s&gt;=0&amp;&amp;s&lt;e){let r=4*(~~this.nodes[0].y*e+s);t[r]=Math.round(this.colors[0][0]),t[r+1]=Math.round(this.colors[0][1]),t[r+2]=Math.round(this.colors[0][2]),t[r+3]=Math.round(this.colors[0][3])}}}}class m{constructor(t,e){this.nodes=t,this.colors=e}split(){let t=[[],[],[],[]],e=[[],[],[],[]],s=[[[],[]],[[],[]]],r=[[[],[]],[[],[]]];for(let s=0;s&lt;4;++s){const r=n(this.nodes[0][s],this.nodes[1][s],this.nodes[2][s],this.nodes[3][s]);t[0][s]=r[0][0],t[1][s]=r[0][1],t[2][s]=r[0][2],t[3][s]=r[0][3],e[0][s]=r[1][0],e[1][s]=r[1][1],e[2][s]=r[1][2],e[3][s]=r[1][3]}for(let t=0;t&lt;4;++t)s[0][0][t]=this.colors[0][0][t],s[0][1][t]=this.colors[0][1][t],s[1][0][t]=(this.colors[0][0][t]+this.colors[1][0][t])/2,s[1][1][t]=(this.colors[0][1][t]+this.colors[1][1][t])/2,r[0][0][t]=s[1][0][t],r[0][1][t]=s[1][1][t],r[1][0][t]=this.colors[1][0][t],r[1][1][t]=this.colors[1][1][t];return[new m(t,s),new m(e,r)]}paint(t,e){let s,n=!1;for(let t=0;t&lt;4;++t)if((s=o([this.nodes[0][t],this.nodes[1][t],this.nodes[2][t],this.nodes[3][t]]))&gt;r){n=!0;break}if(n){let s=this.split();s[0].paint(t,e),s[1].paint(t,e)}else{new w([...this.nodes[0]],[...this.colors[0]]).paintCurve(t,e)}}}class b{constructor(t){this.readMesh(t),this.type=t.getAttribute(&quot;type&quot;)||&quot;bilinear&quot;}readMesh(t){let e=[[]],s=[[]],r=Number(t.getAttribute(&quot;x&quot;)),n=Number(t.getAttribute(&quot;y&quot;));e[0][0]=new x(r,n);let o=t.children;for(let t=0,r=o.length;t&lt;r;++t){e[3*t+1]=[],e[3*t+2]=[],e[3*t+3]=[],s[t+1]=[];let r=o[t].children;for(let n=0,o=r.length;n&lt;o;++n){let o=r[n].children;for(let r=0,i=o.length;r&lt;i;++r){let i=r;0!==t&amp;&amp;++i;let h,d=o[r].getAttribute(&quot;path&quot;),c=&quot;l&quot;;null!=d&amp;&amp;(c=(h=d.match(/\s*([lLcC])\s*(.*)/))[1]);let u=l(h[2]);switch(c){case&quot;l&quot;:0===i?(e[3*t][3*n+3]=u[0].add(e[3*t][3*n]),e[3*t][3*n+1]=a(e[3*t][3*n],e[3*t][3*n+3]),e[3*t][3*n+2]=a(e[3*t][3*n+3],e[3*t][3*n])):1===i?(e[3*t+3][3*n+3]=u[0].add(e[3*t][3*n+3]),e[3*t+1][3*n+3]=a(e[3*t][3*n+3],e[3*t+3][3*n+3]),e[3*t+2][3*n+3]=a(e[3*t+3][3*n+3],e[3*t][3*n+3])):2===i?(0===n&amp;&amp;(e[3*t+3][3*n+0]=u[0].add(e[3*t+3][3*n+3])),e[3*t+3][3*n+1]=a(e[3*t+3][3*n],e[3*t+3][3*n+3]),e[3*t+3][3*n+2]=a(e[3*t+3][3*n+3],e[3*t+3][3*n])):(e[3*t+1][3*n]=a(e[3*t][3*n],e[3*t+3][3*n]),e[3*t+2][3*n]=a(e[3*t+3][3*n],e[3*t][3*n]));break;case&quot;L&quot;:0===i?(e[3*t][3*n+3]=u[0],e[3*t][3*n+1]=a(e[3*t][3*n],e[3*t][3*n+3]),e[3*t][3*n+2]=a(e[3*t][3*n+3],e[3*t][3*n])):1===i?(e[3*t+3][3*n+3]=u[0],e[3*t+1][3*n+3]=a(e[3*t][3*n+3],e[3*t+3][3*n+3]),e[3*t+2][3*n+3]=a(e[3*t+3][3*n+3],e[3*t][3*n+3])):2===i?(0===n&amp;&amp;(e[3*t+3][3*n+0]=u[0]),e[3*t+3][3*n+1]=a(e[3*t+3][3*n],e[3*t+3][3*n+3]),e[3*t+3][3*n+2]=a(e[3*t+3][3*n+3],e[3*t+3][3*n])):(e[3*t+1][3*n]=a(e[3*t][3*n],e[3*t+3][3*n]),e[3*t+2][3*n]=a(e[3*t+3][3*n],e[3*t][3*n]));break;case&quot;c&quot;:0===i?(e[3*t][3*n+1]=u[0].add(e[3*t][3*n]),e[3*t][3*n+2]=u[1].add(e[3*t][3*n]),e[3*t][3*n+3]=u[2].add(e[3*t][3*n])):1===i?(e[3*t+1][3*n+3]=u[0].add(e[3*t][3*n+3]),e[3*t+2][3*n+3]=u[1].add(e[3*t][3*n+3]),e[3*t+3][3*n+3]=u[2].add(e[3*t][3*n+3])):2===i?(e[3*t+3][3*n+2]=u[0].add(e[3*t+3][3*n+3]),e[3*t+3][3*n+1]=u[1].add(e[3*t+3][3*n+3]),0===n&amp;&amp;(e[3*t+3][3*n+0]=u[2].add(e[3*t+3][3*n+3]))):(e[3*t+2][3*n]=u[0].add(e[3*t+3][3*n]),e[3*t+1][3*n]=u[1].add(e[3*t+3][3*n]));break;case&quot;C&quot;:0===i?(e[3*t][3*n+1]=u[0],e[3*t][3*n+2]=u[1],e[3*t][3*n+3]=u[2]):1===i?(e[3*t+1][3*n+3]=u[0],e[3*t+2][3*n+3]=u[1],e[3*t+3][3*n+3]=u[2]):2===i?(e[3*t+3][3*n+2]=u[0],e[3*t+3][3*n+1]=u[1],0===n&amp;&amp;(e[3*t+3][3*n+0]=u[2])):(e[3*t+2][3*n]=u[0],e[3*t+1][3*n]=u[1]);break;default:console.error(&quot;mesh.js: &quot;+c+&quot; invalid path type.&quot;)}if(0===t&amp;&amp;0===n||r&gt;0){let e=window.getComputedStyle(o[r]).stopColor.match(/^rgb\s*\(\s*(\d+)\s*,\s*(\d+)\s*,\s*(\d+)\s*\)$/i),a=window.getComputedStyle(o[r]).stopOpacity,h=255;a&amp;&amp;(h=Math.floor(255*a)),e&amp;&amp;(0===i?(s[t][n]=[],s[t][n][0]=Math.floor(e[1]),s[t][n][1]=Math.floor(e[2]),s[t][n][2]=Math.floor(e[3]),s[t][n][3]=h):1===i?(s[t][n+1]=[],s[t][n+1][0]=Math.floor(e[1]),s[t][n+1][1]=Math.floor(e[2]),s[t][n+1][2]=Math.floor(e[3]),s[t][n+1][3]=h):2===i?(s[t+1][n+1]=[],s[t+1][n+1][0]=Math.floor(e[1]),s[t+1][n+1][1]=Math.floor(e[2]),s[t+1][n+1][2]=Math.floor(e[3]),s[t+1][n+1][3]=h):3===i&amp;&amp;(s[t+1][n]=[],s[t+1][n][0]=Math.floor(e[1]),s[t+1][n][1]=Math.floor(e[2]),s[t+1][n][2]=Math.floor(e[3]),s[t+1][n][3]=h))}}e[3*t+1][3*n+1]=new x,e[3*t+1][3*n+2]=new x,e[3*t+2][3*n+1]=new x,e[3*t+2][3*n+2]=new x,e[3*t+1][3*n+1].x=(-4*e[3*t][3*n].x+6*(e[3*t][3*n+1].x+e[3*t+1][3*n].x)+-2*(e[3*t][3*n+3].x+e[3*t+3][3*n].x)+3*(e[3*t+3][3*n+1].x+e[3*t+1][3*n+3].x)+-1*e[3*t+3][3*n+3].x)/9,e[3*t+1][3*n+2].x=(-4*e[3*t][3*n+3].x+6*(e[3*t][3*n+2].x+e[3*t+1][3*n+3].x)+-2*(e[3*t][3*n].x+e[3*t+3][3*n+3].x)+3*(e[3*t+3][3*n+2].x+e[3*t+1][3*n].x)+-1*e[3*t+3][3*n].x)/9,e[3*t+2][3*n+1].x=(-4*e[3*t+3][3*n].x+6*(e[3*t+3][3*n+1].x+e[3*t+2][3*n].x)+-2*(e[3*t+3][3*n+3].x+e[3*t][3*n].x)+3*(e[3*t][3*n+1].x+e[3*t+2][3*n+3].x)+-1*e[3*t][3*n+3].x)/9,e[3*t+2][3*n+2].x=(-4*e[3*t+3][3*n+3].x+6*(e[3*t+3][3*n+2].x+e[3*t+2][3*n+3].x)+-2*(e[3*t+3][3*n].x+e[3*t][3*n+3].x)+3*(e[3*t][3*n+2].x+e[3*t+2][3*n].x)+-1*e[3*t][3*n].x)/9,e[3*t+1][3*n+1].y=(-4*e[3*t][3*n].y+6*(e[3*t][3*n+1].y+e[3*t+1][3*n].y)+-2*(e[3*t][3*n+3].y+e[3*t+3][3*n].y)+3*(e[3*t+3][3*n+1].y+e[3*t+1][3*n+3].y)+-1*e[3*t+3][3*n+3].y)/9,e[3*t+1][3*n+2].y=(-4*e[3*t][3*n+3].y+6*(e[3*t][3*n+2].y+e[3*t+1][3*n+3].y)+-2*(e[3*t][3*n].y+e[3*t+3][3*n+3].y)+3*(e[3*t+3][3*n+2].y+e[3*t+1][3*n].y)+-1*e[3*t+3][3*n].y)/9,e[3*t+2][3*n+1].y=(-4*e[3*t+3][3*n].y+6*(e[3*t+3][3*n+1].y+e[3*t+2][3*n].y)+-2*(e[3*t+3][3*n+3].y+e[3*t][3*n].y)+3*(e[3*t][3*n+1].y+e[3*t+2][3*n+3].y)+-1*e[3*t][3*n+3].y)/9,e[3*t+2][3*n+2].y=(-4*e[3*t+3][3*n+3].y+6*(e[3*t+3][3*n+2].y+e[3*t+2][3*n+3].y)+-2*(e[3*t+3][3*n].y+e[3*t][3*n+3].y)+3*(e[3*t][3*n+2].y+e[3*t+2][3*n].y)+-1*e[3*t][3*n].y)/9}}this.nodes=e,this.colors=s}paintMesh(t,e){let s=(this.nodes.length-1)/3,r=(this.nodes[0].length-1)/3;if(&quot;bilinear&quot;===this.type||s&lt;2||r&lt;2){let n;for(let o=0;o&lt;s;++o)for(let s=0;s&lt;r;++s){let r=[];for(let t=3*o,e=3*o+4;t&lt;e;++t)r.push(this.nodes[t].slice(3*s,3*s+4));let i=[];i.push(this.colors[o].slice(s,s+2)),i.push(this.colors[o+1].slice(s,s+2)),(n=new m(r,i)).paint(t,e)}}else{let n,o,a,h,l,d,u;const x=s,g=r;s++,r++;let w=new Array(s);for(let t=0;t&lt;s;++t){w[t]=new Array(r);for(let e=0;e&lt;r;++e)w[t][e]=[],w[t][e][0]=this.nodes[3*t][3*e],w[t][e][1]=this.colors[t][e]}for(let t=0;t&lt;s;++t)for(let e=0;e&lt;r;++e)0!==t&amp;&amp;t!==x&amp;&amp;(n=i(w[t-1][e][0],w[t][e][0]),o=i(w[t+1][e][0],w[t][e][0]),w[t][e][2]=c(w[t-1][e][1],w[t][e][1],w[t+1][e][1],n,o)),0!==e&amp;&amp;e!==g&amp;&amp;(n=i(w[t][e-1][0],w[t][e][0]),o=i(w[t][e+1][0],w[t][e][0]),w[t][e][3]=c(w[t][e-1][1],w[t][e][1],w[t][e+1][1],n,o));for(let t=0;t&lt;r;++t){w[0][t][2]=[],w[x][t][2]=[];for(let e=0;e&lt;4;++e)n=i(w[1][t][0],w[0][t][0]),o=i(w[x][t][0],w[x-1][t][0]),w[0][t][2][e]=n&gt;0?2*(w[1][t][1][e]-w[0][t][1][e])/n-w[1][t][2][e]:0,w[x][t][2][e]=o&gt;0?2*(w[x][t][1][e]-w[x-1][t][1][e])/o-w[x-1][t][2][e]:0}for(let t=0;t&lt;s;++t){w[t][0][3]=[],w[t][g][3]=[];for(let e=0;e&lt;4;++e)n=i(w[t][1][0],w[t][0][0]),o=i(w[t][g][0],w[t][g-1][0]),w[t][0][3][e]=n&gt;0?2*(w[t][1][1][e]-w[t][0][1][e])/n-w[t][1][3][e]:0,w[t][g][3][e]=o&gt;0?2*(w[t][g][1][e]-w[t][g-1][1][e])/o-w[t][g-1][3][e]:0}for(let s=0;s&lt;x;++s)for(let r=0;r&lt;g;++r){let n=i(w[s][r][0],w[s+1][r][0]),o=i(w[s][r+1][0],w[s+1][r+1][0]),c=i(w[s][r][0],w[s][r+1][0]),x=i(w[s+1][r][0],w[s+1][r+1][0]),g=[[],[],[],[]];for(let t=0;t&lt;4;++t){(d=[])[0]=w[s][r][1][t],d[1]=w[s+1][r][1][t],d[2]=w[s][r+1][1][t],d[3]=w[s+1][r+1][1][t],d[4]=w[s][r][2][t]*n,d[5]=w[s+1][r][2][t]*n,d[6]=w[s][r+1][2][t]*o,d[7]=w[s+1][r+1][2][t]*o,d[8]=w[s][r][3][t]*c,d[9]=w[s+1][r][3][t]*x,d[10]=w[s][r+1][3][t]*c,d[11]=w[s+1][r+1][3][t]*x,d[12]=0,d[13]=0,d[14]=0,d[15]=0,u=f(d);for(let e=0;e&lt;9;++e){g[t][e]=[];for(let s=0;s&lt;9;++s)g[t][e][s]=p(u,e/8,s/8),g[t][e][s]&gt;255?g[t][e][s]=255:g[t][e][s]&lt;0&amp;&amp;(g[t][e][s]=0)}}h=[];for(let t=3*s,e=3*s+4;t&lt;e;++t)h.push(this.nodes[t].slice(3*r,3*r+4));l=y(h);for(let s=0;s&lt;8;++s)for(let r=0;r&lt;8;++r)(a=new m(l[s][r],[[[g[0][s][r],g[1][s][r],g[2][s][r],g[3][s][r]],[g[0][s][r+1],g[1][s][r+1],g[2][s][r+1],g[3][s][r+1]]],[[g[0][s+1][r],g[1][s+1][r],g[2][s+1][r],g[3][s+1][r]],[g[0][s+1][r+1],g[1][s+1][r+1],g[2][s+1][r+1],g[3][s+1][r+1]]]])).paint(t,e)}}}transform(t){if(t instanceof x)for(let e=0,s=this.nodes.length;e&lt;s;++e)for(let s=0,r=this.nodes[0].length;s&lt;r;++s)this.nodes[e][s]=this.nodes[e][s].add(t);else if(t instanceof g)for(let e=0,s=this.nodes.length;e&lt;s;++e)for(let s=0,r=this.nodes[0].length;s&lt;r;++s)this.nodes[e][s]=this.nodes[e][s].transform(t)}scale(t){for(let e=0,s=this.nodes.length;e&lt;s;++e)for(let s=0,r=this.nodes[0].length;s&lt;r;++s)this.nodes[e][s]=this.nodes[e][s].scale(t)}}document.querySelectorAll(&quot;rect,circle,ellipse,path,text&quot;).forEach((r,n)=&gt;{let o=r.getAttribute(&quot;id&quot;);o||(o=&quot;patchjs_shape&quot;+n,r.setAttribute(&quot;id&quot;,o));const i=r.style.fill.match(/^url\(\s*&quot;?\s*#([^\s&quot;]+)&quot;?\s*\)/),a=r.style.stroke.match(/^url\(\s*&quot;?\s*#([^\s&quot;]+)&quot;?\s*\)/);if(i&amp;&amp;i[1]){const a=document.getElementById(i[1]);if(a&amp;&amp;&quot;meshgradient&quot;===a.nodeName){const i=r.getBBox();let l=document.createElementNS(s,&quot;canvas&quot;);d(l,{width:i.width,height:i.height});const c=l.getContext(&quot;2d&quot;);let u=c.createImageData(i.width,i.height);const f=new b(a);&quot;objectBoundingBox&quot;===a.getAttribute(&quot;gradientUnits&quot;)&amp;&amp;f.scale(new x(i.width,i.height));const p=a.getAttribute(&quot;gradientTransform&quot;);null!=p&amp;&amp;f.transform(h(p)),&quot;userSpaceOnUse&quot;===a.getAttribute(&quot;gradientUnits&quot;)&amp;&amp;f.transform(new x(-i.x,-i.y)),f.paintMesh(u.data,l.width),c.putImageData(u,0,0);const y=document.createElementNS(t,&quot;image&quot;);d(y,{width:i.width,height:i.height,x:i.x,y:i.y});let g=l.toDataURL();y.setAttributeNS(e,&quot;xlink:href&quot;,g),r.parentNode.insertBefore(y,r),r.style.fill=&quot;none&quot;;const w=document.createElementNS(t,&quot;use&quot;);w.setAttributeNS(e,&quot;xlink:href&quot;,&quot;#&quot;+o);const m=&quot;patchjs_clip&quot;+n,M=document.createElementNS(t,&quot;clipPath&quot;);M.setAttribute(&quot;id&quot;,m),M.appendChild(w),r.parentElement.insertBefore(M,r),y.setAttribute(&quot;clip-path&quot;,&quot;url(#&quot;+m+&quot;)&quot;),u=null,l=null,g=null}}if(a&amp;&amp;a[1]){const o=document.getElementById(a[1]);if(o&amp;&amp;&quot;meshgradient&quot;===o.nodeName){const i=parseFloat(r.style.strokeWidth.slice(0,-2))*(parseFloat(r.style.strokeMiterlimit)||parseFloat(r.getAttribute(&quot;stroke-miterlimit&quot;))||1),a=r.getBBox(),l=Math.trunc(a.width+i),c=Math.trunc(a.height+i),u=Math.trunc(a.x-i/2),f=Math.trunc(a.y-i/2);let p=document.createElementNS(s,&quot;canvas&quot;);d(p,{width:l,height:c});const y=p.getContext(&quot;2d&quot;);let g=y.createImageData(l,c);const w=new b(o);&quot;objectBoundingBox&quot;===o.getAttribute(&quot;gradientUnits&quot;)&amp;&amp;w.scale(new x(l,c));const m=o.getAttribute(&quot;gradientTransform&quot;);null!=m&amp;&amp;w.transform(h(m)),&quot;userSpaceOnUse&quot;===o.getAttribute(&quot;gradientUnits&quot;)&amp;&amp;w.transform(new x(-u,-f)),w.paintMesh(g.data,p.width),y.putImageData(g,0,0);const M=document.createElementNS(t,&quot;image&quot;);d(M,{width:l,height:c,x:0,y:0});let S=p.toDataURL();M.setAttributeNS(e,&quot;xlink:href&quot;,S);const k=&quot;pattern_clip&quot;+n,A=document.createElementNS(t,&quot;pattern&quot;);d(A,{id:k,patternUnits:&quot;userSpaceOnUse&quot;,width:l,height:c,x:u,y:f}),A.appendChild(M),o.parentNode.appendChild(A),r.style.stroke=&quot;url(#&quot;+k+&quot;)&quot;,g=null,p=null,S=null}}})}();
</script><path
     id="path1933"
     style="opacity:1;mix-blend-mode:screen;fill:url(#meshgradient1746);fill-opacity:1;stroke-width:1.97894;filter:url(#filter1744)"
     d="m 619.34523,234.7212 c -1.95473,0.0158 -3.67039,1.24965 -4.31965,3.08736 -0.21227,0.59751 -0.27407,1.20282 -0.27407,1.82953 v 61.60207 c 0.0723,2.56684 2.07999,4.56793 4.62337,4.57429 5.33139,0.008 60.52626,-0.0178 60.52626,-0.0178 l -0.0204,-4.76756 h -60.22869 c -0.0849,-0.51211 -0.0638,-60.79901 0.0198,-61.07543 0.49056,-0.0685 129.5777,-0.044 129.86158,0.0226 0.078,0.46497 0.0558,60.75793 -0.0297,61.07543 h -10.32565 v 4.76756 c 0,0 0.42075,3.8e-4 0.61359,0.008 h 10.17635 c 1.93341,-0.0198 3.6465,-1.23189 4.30533,-3.05464 0.21224,-0.58061 0.27304,-1.17956 0.27304,-1.79166 v -61.7186 c -0.0406,-2.03887 -1.42817,-3.82983 -3.39109,-4.37182 l -0.004,-0.004 c -0.51979,-0.13911 -1.03883,-0.16464 -1.57589,-0.16464 z m 60.11617,18.08751 c -0.0404,0.0775 -0.0698,0.13418 -0.0859,0.18722 -4.37512,11.73215 -8.74586,23.46916 -13.11949,35.19944 -0.0198,0.0198 -0.0198,0.0552 -0.0198,0.0778 v 0.0378 c 0,0.0159 0.0198,0.0224 0.0226,0.0399 h 6.00598 l 0.0119,0.002 c 0.0464,-0.13379 0.0997,-0.24871 0.14011,-0.37328 0.92994,-2.64195 1.86037,-5.27925 2.79284,-7.92344 0.15514,-0.425 0.30977,-0.85257 0.44997,-1.27933 0.0554,-0.17811 0.14545,-0.27105 0.33337,-0.24849 0.0608,0.008 0.1314,0 0.19334,0 h 13.12771 c 1.18667,3.28773 2.36534,6.55106 3.53937,9.81534 h 6.14506 c -4.43303,-11.87746 -8.84769,-23.70745 -13.25347,-35.53488 z m -23.09846,0.11755 v 0.002 c -0.34248,0 -0.5584,0.0994 -0.78438,0.3651 -4.57574,5.41879 -9.16226,10.83841 -13.74844,16.25084 -0.0608,0.0692 -0.13991,0.1318 -0.27202,0.25362 v -13.4801 c 0,-1.11572 0.0198,-2.23492 0,-3.35121 h -5.75441 v 35.34671 c 0.45683,0.0802 5.45442,0.063 5.76258,-0.0203 v -0.44997 l -0.0158,-0.002 v -12.32902 c 0,-0.27808 0.0775,-0.47308 0.30475,-0.64937 0.95224,-0.75299 1.89207,-1.52819 2.83171,-2.29686 0.0938,-0.0697 0.18483,-0.13141 0.30167,-0.2168 0.10126,0.13101 0.18623,0.23807 0.26488,0.35588 1.59731,2.30442 3.19592,4.60637 4.7921,6.90694 1.95867,2.8341 3.92043,5.65581 5.87509,8.47672 0.10859,0.16365 0.20824,0.28735 0.44894,0.28735 2.05808,-0.008 4.1141,-0.008 6.16963,-0.008 0.0681,0 0.13813,-0.0226 0.24645,-0.0471 -4.55143,-6.62866 -9.08424,-13.21052 -13.63083,-19.83318 0.91471,-1.06184 1.79954,-2.08411 2.68342,-3.13134 0.88619,-1.0253 1.76903,-2.05392 2.65378,-3.08634 0.88341,-1.02982 1.76084,-2.06163 2.64659,-3.09247 0.88392,-1.03326 1.76969,-2.0642 2.64355,-3.09453 0.87997,-1.02257 1.75271,-2.04558 2.68546,-3.14873 h -0.5185 c -1.86253,0 -3.72389,0.0119 -5.58669,-0.008 z m 52.31543,0.0378 -5.68386,9.6e-4 c -0.096,0.44195 -0.0718,35.09802 0.0204,35.38863 h 20.70036 v -4.92404 h -9.9851 c -0.83944,0 -1.68605,0.008 -2.52184,0 -0.82377,-0.008 -1.64391,0.0305 -2.49831,-0.0179 v -27.71162 l -0.006,-0.006 c 0,-0.91535 0.0347,-1.82282 -0.0254,-2.72945 z m 18.97415,0.0119 v 35.36818 h 5.73297 c 0.0198,-0.0593 0.0339,-0.0918 0.0339,-0.13199 v -35.02972 h -0.004 c 0,-0.0548 0,-0.10056 -0.0198,-0.15752 0,-0.0158 -0.0198,-0.0198 -0.0198,-0.0297 0,-0.008 -0.0226,-0.0198 -0.0226,-0.0198 z m -45.11296,4.95063 c 0.0608,0.0928 0.10929,0.1494 0.12586,0.21066 0.96127,3.58927 2.27454,7.0717 3.46778,10.59256 0.49567,1.465 1.00989,2.92048 1.51454,4.38613 0.0384,0.13119 0.0762,0.26223 0.12268,0.4244 h -10.31131 c 0.0461,-0.15277 0.0854,-0.28384 0.12981,-0.4152 1.21023,-3.50444 2.43783,-6.99287 3.6171,-10.50666 0.47318,-1.41219 0.82943,-2.86922 1.23228,-4.30942 0.034,-0.10906 0.0554,-0.21818 0.10126,-0.38247 z m 2.26108,40.51925 v 9.72535 h 2.05654 v -3.45962 h 0.8856 c 0.9444,0 1.68862,-0.1502 2.23346,-0.44997 0.55395,-0.29965 0.94915,-0.69489 1.18524,-1.18524 0.23611,-0.49943 0.35383,-1.03029 0.35383,-1.59327 0,-0.94441 -0.29012,-1.68441 -0.87128,-2.22017 -0.57209,-0.54484 -1.48549,-0.81708 -2.73864,-0.81708 z m 8.48591,0 v 6.26573 c 0,1.0806 0.33532,1.95202 1.00729,2.61491 0.67197,0.65382 1.6527,0.98072 2.94216,0.98072 0.90808,0 1.65753,-0.15455 2.24778,-0.46326 0.59932,-0.31782 1.04396,-0.74459 1.33455,-1.28036 0.29967,-0.54484 0.44995,-1.15344 0.44995,-1.82541 v -6.29233 h -2.05654 v 5.93849 c 0,0.7537 -0.15455,1.30764 -0.46325,1.6618 -0.29966,0.35415 -0.78529,0.53075 -1.45726,0.53075 -0.64474,0 -1.13138,-0.16287 -1.4583,-0.48985 -0.32691,-0.3269 -0.48986,-0.89031 -0.48986,-1.68942 v -5.95177 z m 10.36552,0 v 9.72535 h 2.05655 v -3.73268 h 1.10342 l 2.31527,3.73268 h 2.28868 l -2.86032,-4.23683 c 0.31781,-0.14525 0.61319,-0.33135 0.8856,-0.55836 0.28151,-0.23611 0.50331,-0.51678 0.66677,-0.84368 0.17256,-0.33598 0.25872,-0.727 0.25872,-1.17197 0,-0.98069 -0.31746,-1.71127 -0.95312,-2.19255 -0.62656,-0.48127 -1.60305,-0.72196 -2.92884,-0.72196 z m 8.99007,0 v 9.72535 h 2.05654 v -3.45962 h 0.88562 c 0.94439,0 1.68861,-0.1502 2.23346,-0.44997 0.55391,-0.29965 0.94914,-0.69489 1.18524,-1.18524 0.2361,-0.49943 0.35383,-1.03029 0.35383,-1.59327 0,-0.94441 -0.29013,-1.68441 -0.87128,-2.22017 -0.5721,-0.54484 -1.48552,-0.81708 -2.73866,-0.81708 z m 8.5534,0 v 9.72535 h 6.00703 v -1.70272 h -3.95048 v -8.02263 z m 7.69643,0 v 9.72535 h 5.59796 v -1.70272 h -3.54141 v -2.5065 h 3.29598 v -1.6884 h -3.29598 v -2.13937 h 3.54141 v -1.68836 z m -42.03479,1.68836 h 0.93981 c 1.08969,0 1.63418,0.47301 1.63418,1.4174 0,0.51759 -0.17236,0.89393 -0.51744,1.13002 -0.33601,0.22702 -0.79431,0.34055 -1.37546,0.34055 h -0.68109 z m 18.85144,0 h 0.62687 c 0.67198,0 1.16184,0.1 1.47057,0.29966 0.31784,0.19077 0.47655,0.51759 0.47655,0.9807 0,0.44496 -0.14921,0.7813 -0.44894,1.00832 -0.29059,0.22703 -0.77621,0.34055 -1.45728,0.34055 h -0.66777 z m 8.99006,0 h 0.93982 c 1.08968,0 1.63419,0.47301 1.63419,1.4174 0,0.51759 -0.17237,0.89393 -0.51747,1.13002 -0.336,0.22702 -0.7943,0.34055 -1.37544,0.34055 h -0.6811 z" /><path
     id="path2169"
     d="m 619.34523,234.7212 c -1.95473,0.0158 -3.67039,1.24965 -4.31965,3.08736 -0.21227,0.59751 -0.27407,1.20282 -0.27407,1.82953 v 61.60207 c 0.0723,2.56684 2.07999,4.56793 4.62337,4.57429 5.33139,0.008 60.52626,-0.0178 60.52626,-0.0178 l -0.0204,-4.76756 h -60.22869 c -0.0849,-0.51211 -0.0638,-60.79901 0.0198,-61.07543 0.49056,-0.0685 129.5777,-0.044 129.86158,0.0226 0.078,0.46497 0.0558,60.75793 -0.0297,61.07543 h -10.32565 v 4.76756 c 0,0 0.42075,3.8e-4 0.61359,0.008 h 10.17635 c 1.93341,-0.0198 3.6465,-1.23189 4.30533,-3.05464 0.21224,-0.58061 0.27304,-1.17956 0.27304,-1.79166 v -61.7186 c -0.0406,-2.03887 -1.42817,-3.82983 -3.39109,-4.37182 l -0.004,-0.004 c -0.51979,-0.13911 -1.03883,-0.16464 -1.57589,-0.16464 z m 60.11617,18.08751 c -0.0404,0.0775 -0.0698,0.13418 -0.0859,0.18722 -4.37512,11.73215 -8.74586,23.46916 -13.11949,35.19944 -0.0198,0.0198 -0.0198,0.0552 -0.0198,0.0778 v 0.0378 c 0,0.0159 0.0198,0.0224 0.0226,0.0399 h 6.00598 l 0.0119,0.002 c 0.0464,-0.13379 0.0997,-0.24871 0.14011,-0.37328 0.92994,-2.64195 1.86037,-5.27925 2.79284,-7.92344 0.15514,-0.425 0.30977,-0.85257 0.44997,-1.27933 0.0554,-0.17811 0.14545,-0.27105 0.33337,-0.24849 0.0608,0.008 0.1314,0 0.19334,0 h 13.12771 c 1.18667,3.28773 2.36534,6.55106 3.53937,9.81534 h 6.14506 c -4.43303,-11.87746 -8.84769,-23.70745 -13.25347,-35.53488 z m -23.09846,0.11755 v 0.002 c -0.34248,0 -0.5584,0.0994 -0.78438,0.3651 -4.57574,5.41879 -9.16226,10.83841 -13.74844,16.25084 -0.0608,0.0692 -0.13991,0.1318 -0.27202,0.25362 v -13.4801 c 0,-1.11572 0.0198,-2.23492 0,-3.35121 h -5.75441 v 35.34671 c 0.45683,0.0802 5.45442,0.063 5.76258,-0.0203 v -0.44997 l -0.0158,-0.002 v -12.32902 c 0,-0.27808 0.0775,-0.47308 0.30475,-0.64937 0.95224,-0.75299 1.89207,-1.52819 2.83171,-2.29686 0.0938,-0.0697 0.18483,-0.13141 0.30167,-0.2168 0.10126,0.13101 0.18623,0.23807 0.26488,0.35588 1.59731,2.30442 3.19592,4.60637 4.7921,6.90694 1.95867,2.8341 3.92043,5.65581 5.87509,8.47672 0.10859,0.16365 0.20824,0.28735 0.44894,0.28735 2.05808,-0.008 4.1141,-0.008 6.16963,-0.008 0.0681,0 0.13813,-0.0226 0.24645,-0.0471 -4.55143,-6.62866 -9.08424,-13.21052 -13.63083,-19.83318 0.91471,-1.06184 1.79954,-2.08411 2.68342,-3.13134 0.88619,-1.0253 1.76903,-2.05392 2.65378,-3.08634 0.88341,-1.02982 1.76084,-2.06163 2.64659,-3.09247 0.88392,-1.03326 1.76969,-2.0642 2.64355,-3.09453 0.87997,-1.02257 1.75271,-2.04558 2.68546,-3.14873 h -0.5185 c -1.86253,0 -3.72389,0.0119 -5.58669,-0.008 z m 52.31543,0.0378 -5.68386,9.6e-4 c -0.096,0.44195 -0.0718,35.09802 0.0204,35.38863 h 20.70036 v -4.92404 h -9.9851 c -0.83944,0 -1.68605,0.008 -2.52184,0 -0.82377,-0.008 -1.64391,0.0305 -2.49831,-0.0179 v -27.71162 l -0.006,-0.006 c 0,-0.91535 0.0347,-1.82282 -0.0254,-2.72945 z m 18.97415,0.0119 v 35.36818 h 5.73297 c 0.0198,-0.0593 0.0339,-0.0918 0.0339,-0.13199 v -35.02972 h -0.004 c 0,-0.0548 0,-0.10056 -0.0198,-0.15752 0,-0.0158 -0.0198,-0.0198 -0.0198,-0.0297 0,-0.008 -0.0226,-0.0198 -0.0226,-0.0198 z m -45.11296,4.95063 c 0.0608,0.0928 0.10929,0.1494 0.12586,0.21066 0.96127,3.58927 2.27454,7.0717 3.46778,10.59256 0.49567,1.465 1.00989,2.92048 1.51454,4.38613 0.0384,0.13119 0.0762,0.26223 0.12268,0.4244 h -10.31131 c 0.0461,-0.15277 0.0854,-0.28384 0.12981,-0.4152 1.21023,-3.50444 2.43783,-6.99287 3.6171,-10.50666 0.47318,-1.41219 0.82943,-2.86922 1.23228,-4.30942 0.034,-0.10906 0.0554,-0.21818 0.10126,-0.38247 z m 2.26108,40.51925 v 9.72535 h 2.05654 v -3.45962 h 0.8856 c 0.9444,0 1.68862,-0.1502 2.23346,-0.44997 0.55395,-0.29965 0.94915,-0.69489 1.18524,-1.18524 0.23611,-0.49943 0.35383,-1.03029 0.35383,-1.59327 0,-0.94441 -0.29012,-1.68441 -0.87128,-2.22017 -0.57209,-0.54484 -1.48549,-0.81708 -2.73864,-0.81708 z m 8.48591,0 v 6.26573 c 0,1.0806 0.33532,1.95202 1.00729,2.61491 0.67197,0.65382 1.6527,0.98072 2.94216,0.98072 0.90808,0 1.65753,-0.15455 2.24778,-0.46326 0.59932,-0.31782 1.04396,-0.74459 1.33455,-1.28036 0.29967,-0.54484 0.44995,-1.15344 0.44995,-1.82541 v -6.29233 h -2.05654 v 5.93849 c 0,0.7537 -0.15455,1.30764 -0.46325,1.6618 -0.29966,0.35415 -0.78529,0.53075 -1.45726,0.53075 -0.64474,0 -1.13138,-0.16287 -1.4583,-0.48985 -0.32691,-0.3269 -0.48986,-0.89031 -0.48986,-1.68942 v -5.95177 z m 10.36552,0 v 9.72535 h 2.05655 v -3.73268 h 1.10342 l 2.31527,3.73268 h 2.28868 l -2.86032,-4.23683 c 0.31781,-0.14525 0.61319,-0.33135 0.8856,-0.55836 0.28151,-0.23611 0.50331,-0.51678 0.66677,-0.84368 0.17256,-0.33598 0.25872,-0.727 0.25872,-1.17197 0,-0.98069 -0.31746,-1.71127 -0.95312,-2.19255 -0.62656,-0.48127 -1.60305,-0.72196 -2.92884,-0.72196 z m 8.99007,0 v 9.72535 h 2.05654 v -3.45962 h 0.88562 c 0.94439,0 1.68861,-0.1502 2.23346,-0.44997 0.55391,-0.29965 0.94914,-0.69489 1.18524,-1.18524 0.2361,-0.49943 0.35383,-1.03029 0.35383,-1.59327 0,-0.94441 -0.29013,-1.68441 -0.87128,-2.22017 -0.5721,-0.54484 -1.48552,-0.81708 -2.73866,-0.81708 z m 8.5534,0 v 9.72535 h 6.00703 v -1.70272 h -3.95048 v -8.02263 z m 7.69643,0 v 9.72535 h 5.59796 v -1.70272 h -3.54141 v -2.5065 h 3.29598 v -1.6884 h -3.29598 v -2.13937 h 3.54141 v -1.68836 z m -42.03479,1.68836 h 0.93981 c 1.08969,0 1.63418,0.47301 1.63418,1.4174 0,0.51759 -0.17236,0.89393 -0.51744,1.13002 -0.33601,0.22702 -0.79431,0.34055 -1.37546,0.34055 h -0.68109 z m 18.85144,0 h 0.62687 c 0.67198,0 1.16184,0.1 1.47057,0.29966 0.31784,0.19077 0.47655,0.51759 0.47655,0.9807 0,0.44496 -0.14921,0.7813 -0.44894,1.00832 -0.29059,0.22703 -0.77621,0.34055 -1.45728,0.34055 h -0.66777 z m 8.99006,0 h 0.93982 c 1.08968,0 1.63419,0.47301 1.63419,1.4174 0,0.51759 -0.17237,0.89393 -0.51747,1.13002 -0.336,0.22702 -0.7943,0.34055 -1.37544,0.34055 h -0.6811 z"
     style="mix-blend-mode:screen;filter:url(#filter2385)" /><path
     id="path2387"
     d="m 619.34523,234.7212 c -1.95473,0.0158 -3.67039,1.24965 -4.31965,3.08736 -0.21227,0.59751 -0.27407,1.20282 -0.27407,1.82953 v 61.60207 c 0.0723,2.56684 2.07999,4.56793 4.62337,4.57429 5.33139,0.008 60.52626,-0.0178 60.52626,-0.0178 l -0.0204,-4.76756 h -60.22869 c -0.0849,-0.51211 -0.0638,-60.79901 0.0198,-61.07543 0.49056,-0.0685 129.5777,-0.044 129.86158,0.0226 0.078,0.46497 0.0558,60.75793 -0.0297,61.07543 h -10.32565 v 4.76756 c 0,0 0.42075,3.8e-4 0.61359,0.008 h 10.17635 c 1.93341,-0.0198 3.6465,-1.23189 4.30533,-3.05464 0.21224,-0.58061 0.27304,-1.17956 0.27304,-1.79166 v -61.7186 c -0.0406,-2.03887 -1.42817,-3.82983 -3.39109,-4.37182 l -0.004,-0.004 c -0.51979,-0.13911 -1.03883,-0.16464 -1.57589,-0.16464 z m 60.11617,18.08751 c -0.0404,0.0775 -0.0698,0.13418 -0.0859,0.18722 -4.37512,11.73215 -8.74586,23.46916 -13.11949,35.19944 -0.0198,0.0198 -0.0198,0.0552 -0.0198,0.0778 v 0.0378 c 0,0.0159 0.0198,0.0224 0.0226,0.0399 h 6.00598 l 0.0119,0.002 c 0.0464,-0.13379 0.0997,-0.24871 0.14011,-0.37328 0.92994,-2.64195 1.86037,-5.27925 2.79284,-7.92344 0.15514,-0.425 0.30977,-0.85257 0.44997,-1.27933 0.0554,-0.17811 0.14545,-0.27105 0.33337,-0.24849 0.0608,0.008 0.1314,0 0.19334,0 h 13.12771 c 1.18667,3.28773 2.36534,6.55106 3.53937,9.81534 h 6.14506 c -4.43303,-11.87746 -8.84769,-23.70745 -13.25347,-35.53488 z m -23.09846,0.11755 v 0.002 c -0.34248,0 -0.5584,0.0994 -0.78438,0.3651 -4.57574,5.41879 -9.16226,10.83841 -13.74844,16.25084 -0.0608,0.0692 -0.13991,0.1318 -0.27202,0.25362 v -13.4801 c 0,-1.11572 0.0198,-2.23492 0,-3.35121 h -5.75441 v 35.34671 c 0.45683,0.0802 5.45442,0.063 5.76258,-0.0203 v -0.44997 l -0.0158,-0.002 v -12.32902 c 0,-0.27808 0.0775,-0.47308 0.30475,-0.64937 0.95224,-0.75299 1.89207,-1.52819 2.83171,-2.29686 0.0938,-0.0697 0.18483,-0.13141 0.30167,-0.2168 0.10126,0.13101 0.18623,0.23807 0.26488,0.35588 1.59731,2.30442 3.19592,4.60637 4.7921,6.90694 1.95867,2.8341 3.92043,5.65581 5.87509,8.47672 0.10859,0.16365 0.20824,0.28735 0.44894,0.28735 2.05808,-0.008 4.1141,-0.008 6.16963,-0.008 0.0681,0 0.13813,-0.0226 0.24645,-0.0471 -4.55143,-6.62866 -9.08424,-13.21052 -13.63083,-19.83318 0.91471,-1.06184 1.79954,-2.08411 2.68342,-3.13134 0.88619,-1.0253 1.76903,-2.05392 2.65378,-3.08634 0.88341,-1.02982 1.76084,-2.06163 2.64659,-3.09247 0.88392,-1.03326 1.76969,-2.0642 2.64355,-3.09453 0.87997,-1.02257 1.75271,-2.04558 2.68546,-3.14873 h -0.5185 c -1.86253,0 -3.72389,0.0119 -5.58669,-0.008 z m 52.31543,0.0378 -5.68386,9.6e-4 c -0.096,0.44195 -0.0718,35.09802 0.0204,35.38863 h 20.70036 v -4.92404 h -9.9851 c -0.83944,0 -1.68605,0.008 -2.52184,0 -0.82377,-0.008 -1.64391,0.0305 -2.49831,-0.0179 v -27.71162 l -0.006,-0.006 c 0,-0.91535 0.0347,-1.82282 -0.0254,-2.72945 z m 18.97415,0.0119 v 35.36818 h 5.73297 c 0.0198,-0.0593 0.0339,-0.0918 0.0339,-0.13199 v -35.02972 h -0.004 c 0,-0.0548 0,-0.10056 -0.0198,-0.15752 0,-0.0158 -0.0198,-0.0198 -0.0198,-0.0297 0,-0.008 -0.0226,-0.0198 -0.0226,-0.0198 z m -45.11296,4.95063 c 0.0608,0.0928 0.10929,0.1494 0.12586,0.21066 0.96127,3.58927 2.27454,7.0717 3.46778,10.59256 0.49567,1.465 1.00989,2.92048 1.51454,4.38613 0.0384,0.13119 0.0762,0.26223 0.12268,0.4244 h -10.31131 c 0.0461,-0.15277 0.0854,-0.28384 0.12981,-0.4152 1.21023,-3.50444 2.43783,-6.99287 3.6171,-10.50666 0.47318,-1.41219 0.82943,-2.86922 1.23228,-4.30942 0.034,-0.10906 0.0554,-0.21818 0.10126,-0.38247 z m 2.26108,40.51925 v 9.72535 h 2.05654 v -3.45962 h 0.8856 c 0.9444,0 1.68862,-0.1502 2.23346,-0.44997 0.55395,-0.29965 0.94915,-0.69489 1.18524,-1.18524 0.23611,-0.49943 0.35383,-1.03029 0.35383,-1.59327 0,-0.94441 -0.29012,-1.68441 -0.87128,-2.22017 -0.57209,-0.54484 -1.48549,-0.81708 -2.73864,-0.81708 z m 8.48591,0 v 6.26573 c 0,1.0806 0.33532,1.95202 1.00729,2.61491 0.67197,0.65382 1.6527,0.98072 2.94216,0.98072 0.90808,0 1.65753,-0.15455 2.24778,-0.46326 0.59932,-0.31782 1.04396,-0.74459 1.33455,-1.28036 0.29967,-0.54484 0.44995,-1.15344 0.44995,-1.82541 v -6.29233 h -2.05654 v 5.93849 c 0,0.7537 -0.15455,1.30764 -0.46325,1.6618 -0.29966,0.35415 -0.78529,0.53075 -1.45726,0.53075 -0.64474,0 -1.13138,-0.16287 -1.4583,-0.48985 -0.32691,-0.3269 -0.48986,-0.89031 -0.48986,-1.68942 v -5.95177 z m 10.36552,0 v 9.72535 h 2.05655 v -3.73268 h 1.10342 l 2.31527,3.73268 h 2.28868 l -2.86032,-4.23683 c 0.31781,-0.14525 0.61319,-0.33135 0.8856,-0.55836 0.28151,-0.23611 0.50331,-0.51678 0.66677,-0.84368 0.17256,-0.33598 0.25872,-0.727 0.25872,-1.17197 0,-0.98069 -0.31746,-1.71127 -0.95312,-2.19255 -0.62656,-0.48127 -1.60305,-0.72196 -2.92884,-0.72196 z m 8.99007,0 v 9.72535 h 2.05654 v -3.45962 h 0.88562 c 0.94439,0 1.68861,-0.1502 2.23346,-0.44997 0.55391,-0.29965 0.94914,-0.69489 1.18524,-1.18524 0.2361,-0.49943 0.35383,-1.03029 0.35383,-1.59327 0,-0.94441 -0.29013,-1.68441 -0.87128,-2.22017 -0.5721,-0.54484 -1.48552,-0.81708 -2.73866,-0.81708 z m 8.5534,0 v 9.72535 h 6.00703 v -1.70272 h -3.95048 v -8.02263 z m 7.69643,0 v 9.72535 h 5.59796 v -1.70272 h -3.54141 v -2.5065 h 3.29598 v -1.6884 h -3.29598 v -2.13937 h 3.54141 v -1.68836 z m -42.03479,1.68836 h 0.93981 c 1.08969,0 1.63418,0.47301 1.63418,1.4174 0,0.51759 -0.17236,0.89393 -0.51744,1.13002 -0.33601,0.22702 -0.79431,0.34055 -1.37546,0.34055 h -0.68109 z m 18.85144,0 h 0.62687 c 0.67198,0 1.16184,0.1 1.47057,0.29966 0.31784,0.19077 0.47655,0.51759 0.47655,0.9807 0,0.44496 -0.14921,0.7813 -0.44894,1.00832 -0.29059,0.22703 -0.77621,0.34055 -1.45728,0.34055 h -0.66777 z m 8.99006,0 h 0.93982 c 1.08968,0 1.63419,0.47301 1.63419,1.4174 0,0.51759 -0.17237,0.89393 -0.51747,1.13002 -0.336,0.22702 -0.7943,0.34055 -1.37544,0.34055 h -0.6811 z"
     style="mix-blend-mode:screen;filter:url(#filter2385)" /></svg>
