<svg xmlns="http://www.w3.org/2000/svg" viewBox="0 0 256 256"><g fill="none" stroke-width="2"><path stroke="#5988b7" d="M125.5 4.46q-6.29-.15-12.5.83" vector-effect="non-scaling-stroke"/><path stroke="#608eba" d="M113 5.29q-8.4.91-16.49 3.05" vector-effect="non-scaling-stroke"/><path stroke="#6895be" d="M96.51 8.34Q57.35 18.96 31.96 50.25" vector-effect="non-scaling-stroke"/><path stroke="#608eba" d="M31.96 50.25q-6.64 7.78-11.46 16.74" vector-effect="non-scaling-stroke"/><path stroke="#5988b7" d="M20.5 66.99q-5.61 9.42-9.04 19.76" vector-effect="non-scaling-stroke"/><path stroke="#5182b3" d="M11.46 86.75Q7.71 96.58 6.21 107" vector-effect="non-scaling-stroke"/><path stroke="#477baf" d="M6.21 107q-1.83 8.66-1.67 17.5" vector-effect="non-scaling-stroke"/><path stroke="#3d73aa" d="M4.54 124.5q-.59 13.74 2 27.25" vector-effect="non-scaling-stroke"/><path stroke="#326ca6" d="M6.54 151.75q9.8 46.05 45.86 74.17c47.24 36.85 116.48 33.86 160.04-7.48 59.68-56.63 50.19-155.61-22.44-197.4" vector-effect="non-scaling-stroke"/><path stroke="#3d73aa" d="M190 21.04q-11.58-6.91-24.5-10.75" vector-effect="non-scaling-stroke"/><path stroke="#477baf" d="m165.5 10.29-9.75-2.75" vector-effect="non-scaling-stroke"/><path stroke="#5182b3" d="M155.75 7.54q-14.91-3.62-30.25-3.08" vector-effect="non-scaling-stroke"/><path stroke="#81abd4" d="m155.75 7.54-.06 2.48q-.01.5.22.94c15.31 28.92 14.09 64.95-4.07 92.38q-20.69 31.22-57.08 39.38c-3.13.7-6.76.94-10.14 1.42-1.94.27-3.5-.58-5.37-.93" vector-effect="non-scaling-stroke"/><path stroke="#c5d9ec" d="m79.25 143.21 21.5-26.25" vector-effect="non-scaling-stroke"/><path stroke="#93b8dc" d="M100.75 116.96q8.24-1.37 14.55-6.43c2.37-1.9 4.91-3.18 6.86-5.13 7.42-7.43 15.37-17.38 17.38-27.9" vector-effect="non-scaling-stroke"/><path stroke="#c5d9ec" d="M139.54 77.5q1.03.45 1.81-.09.43-.29.4-.82l-.36-6.52" vector-effect="non-scaling-stroke"/><path stroke="#93b8dc" d="M141.39 70.07q2.38-4.18 2.62-6.07.76-6.06.3-17.94c-.09-2.38-.9-4.68-1.16-7.12-1.16-10.63-7.1-20.83-14.11-29.23q-1.48-1.77-.97-4.62.1-.56-.47-.58l-2.1-.05" vector-effect="non-scaling-stroke"/><path stroke="#cddfef" d="M139.54 77.5c-.82-6.15-3.42-13.39-8.75-16.75" vector-effect="non-scaling-stroke"/><path stroke="#d4e4f2" d="M130.79 60.75q-5.86-3.49-12.79-3.21" vector-effect="non-scaling-stroke"/><path stroke="#dcebf6" d="m118 57.54-55.55-.07q-.61 0-.67.6-.06.51.29 1.11" vector-effect="non-scaling-stroke"/><path stroke="#d4e4f2" d="M62.07 59.18 94.5 98.54" vector-effect="non-scaling-stroke"/><path stroke="#cddfef" d="m94.5 98.54 10.1 12.44a.98.97 45.3 0 1 0 1.23l-3.85 4.75M92.21 118.25l-8.71-11.04" vector-effect="non-scaling-stroke"/><path stroke="#6d9ccb" d="M165.5 10.29q1.41 1.26 1.32 3.09c-.08 1.54 1.1 2.57 1.51 3.95 1.5 5.04 3.56 9.64 4.36 14.85.77 5.01 1.91 9.83 2.07 14.85q.03.87.61 4.74c.46 3.1-.65 5.96-.55 8.96.13 3.85-.99 8.02-1.41 11.03q-.99 7.19-3.65 14.03-.19.49-.63.77-11.38 7.37-11.57 21.18-.01.47-.29.85c-1.06 1.43-1.71 3.17-2.63 4.41q-10.88 14.61-26.35 24.27-.13.07-.2.25-.13.33-.43.51-25.29 15.24-54.9 13.75" vector-effect="non-scaling-stroke"/><path stroke="#bbd1e7" d="m72.76 151.78 6.49-8.57" vector-effect="non-scaling-stroke"/><path stroke="#cddfef" d="M141.39 70.07c-.3-2.3-1.24-17.45-1.89-18.03" vector-effect="non-scaling-stroke"/><path stroke="#7ea9d3" d="M139.5 52.04q.15-.16.48-.28.62-.21-.01-.36-3.31-.77-6.72-.19" vector-effect="non-scaling-stroke"/><path stroke="#a1c4e2" d="M133.25 51.21q1.38-.31 2.32-1.3.29-.31-.08-.53l-.28-.17q-.3-.18-.33-.53-2.34-23.86-19.98-39.78-.41-.36-.29-.9.47-2.09-1.61-2.71" vector-effect="non-scaling-stroke"/><path stroke="#b1cae3" d="m139.5 52.04-98.23.3q-.5 0-.52.5l-.04 1.91" vector-effect="non-scaling-stroke"/><path stroke="#578dc2" d="M190 21.04q-.62 5.45 1.64 10.53.36.81.36-.07v-3.24q0-.6.17-.02c2.01 7 2.84 15.93 2.63 23.31-.11 3.95.43 7.83-.23 11.73q-.25 1.53-.29 3.73-.22 11.05-5.21 22.68" vector-effect="non-scaling-stroke"/><path stroke="#b1cae3" d="M189.07 89.69c-15.08-11.57-30.09 2.3-30.72 18.28q-.51 13.01 8.44 21.03" vector-effect="non-scaling-stroke"/><path stroke="#578dc2" d="M166.79 129c-2.68 6.86-10.86 11.53-15.82 16.57q-1.71 1.74-2.49 2.32-12.5 9.31-22.97 13.88-8.45 3.69-24.44 8.51-3.26.99-6.8.98-15.79-.03-31.55.77" vector-effect="non-scaling-stroke"/><path stroke="#b1cae3" d="M62.72 172.03q-2.56.83-5.32.38a.88.87 23.3 0 1-.56-1.39q7.87-10.36 15.92-19.24" vector-effect="non-scaling-stroke"/><path stroke="#d4e4f2" d="m75 96.71 8.5 10.5" vector-effect="non-scaling-stroke"/><path stroke="#a1c4e2" d="m83.5 107.21-.25.49q-.12.25-.2-.02-.03-.12-.07-.25-.05-.14-.18-.05c-3.2 2.36-10.65 1.43-14.78.88-21.83-2.92-38.31-18.05-45.24-38.82q-.15-.46-.57-.7-1.11-.65-1.71-1.75" vector-effect="non-scaling-stroke"/><path stroke="#8db6da" d="M124.37 51.01c-27.96.13-56.03-.93-84.06-.29q-.47.01-.64.45-.89 2.27 1.04 3.58" vector-effect="non-scaling-stroke"/><path stroke="#dcebf6" d="M40.71 54.75 75 96.71" vector-effect="non-scaling-stroke"/><path stroke="#b0d0e9" d="M75 96.71q-.95.45-1.48-.35-.27-.41-.67-.12c-1.31.95-6.6-.35-8.29-.27q-.47.03-.52-.44-.06-.55-.6-.66c-16.31-3.26-28.15-20.04-30.48-35.61q-.96-6.39-1-9.01M118 57.54q-1.33.66-.79 1.8.21.46.05.95c-.89 2.57-.77 5.1-1.66 7.45q-6.56 17.33-23.2 24.71a1.84 1.83-31.4 0 1-2.16-.52l-26.56-32.7q-.29-.36-.74-.25l-.87.2" vector-effect="non-scaling-stroke"/><path stroke="#578dc2" d="M6.54 151.75q2.97.46 3.88 1.09 7.51 5.22 15.86 8.84c2.08.9 4.57 2.51 6.95 3.33 2.35.82 7.36 2.34 11.01 3.04q.41.08.77.3 2 1.28 4.25 1.2.53-.02.84-.46c2.1-3.05 5.1-5.32 7.12-7.96q4.08-5.34 8.28-10.59" vector-effect="non-scaling-stroke"/><path stroke="#6294c6" d="m65.5 150.54 8.81-10.89" vector-effect="non-scaling-stroke"/><path stroke="#6c9ccb" d="m74.31 139.65 12.94-16.11" vector-effect="non-scaling-stroke"/><path stroke="#73a2ce" d="m87.25 123.54 4.96-5.29" vector-effect="non-scaling-stroke"/><path stroke="#a6c2de" d="M92.21 118.25c.32.29.36.52.07.87q-25.65 31.62-51.79 64.24a1.32 1.32 0 0 0 1.03 2.14h100.32q.6 0 .69-.59l4.71-30.42q.09-.55-.44-.71l-1.02-.31a.85.85 0 0 0-1.07.61c-3.37 13.34-10.72 18.41-24.46 18.53q-28.73.25-57.53-.58M166.79 129c11.98 6.72 23.31 2.52 29.47-9.36a.49.49 0 0 1 .91.1c1.03 4.02 2.84 10.97 7.59 11.75 6.34 1.04 8.9-6.81 9-11.77a.43.43 0 0 0-.83-.16c-6.58 17.17-15.23-1.14-13.08-8.49q3.5-11.94 7.06-23.94.19-.63-.46-.63h-6.09q-.52 0-.66.49l-3.74 12.7a.58.57-48.6 0 1-1.08.07q-2.49-5.79-5.81-10.07" vector-effect="non-scaling-stroke"/><path stroke="#a1c4e2" d="M130.79 60.75c-3.82 18.54-12.85 33.1-29.91 41.98a1.32 1.32 0 0 1-1.62-.32l-3.55-4.2q-.31-.37-.77-.21-.44.15-.44.54" vector-effect="non-scaling-stroke"/><path stroke="#93b8dc" d="M87.25 123.54c-2.6-1.51-4.8-.21-7.22-.4-3.98-.3-8.08.17-11.68-.25q-17.18-2.01-29.67-10.32-8.69-5.78-18.17-16.69c-2.35-2.71-3.91-6.52-6.55-9.53q-.33-.38-.83-.33-1.03.09-1.67.73" vector-effect="non-scaling-stroke"/><path stroke="#85afd6" d="m133.25 51.21-8.88-.2" vector-effect="non-scaling-stroke"/><path stroke="#b0d0e9" d="M124.37 51.01q-1.46-7.03-3.55-13.86c-.43-1.41-1.68-2.58-2.16-4.04-2.78-8.34-7.9-13.19-15.14-18.58q-3.72-2.77-7.01-6.19" vector-effect="non-scaling-stroke"/><path stroke="#81abd4" d="M74.31 139.65c-25.21.08-48.96-12.13-65.07-31.2q-.35-.41-.88-.44-1.3-.06-2.15-1.01" vector-effect="non-scaling-stroke"/><path stroke="#6d9ccb" d="M65.5 150.54c-1.62 1.18-2.21.34-3.7.13-21.84-3.18-37.85-12.45-54.36-26.62q-1.36-1.17-2.9.45" vector-effect="non-scaling-stroke"/><path stroke="#a6c2de" d="M182.117 180.802a4.61 4.32-36.9 0 0-6.28-.687 4.61 4.32-36.9 0 0-1.093 6.223 4.61 4.32-36.9 0 0 6.28.687 4.61 4.32-36.9 0 0 1.093-6.223M201.26 196.77a.52.52 0 0 0-.52-.52h-44.68a.52.52 0 0 0-.52.52v2.2a.52.52 0 0 0 .52.52h44.68a.52.52 0 0 0 .52-.52v-2.2M182.94 212.06a4.47 4.47 0 0 0-4.47-4.47 4.47 4.47 0 0 0-4.47 4.47 4.47 4.47 0 0 0 4.47 4.47 4.47 4.47 0 0 0 4.47-4.47M169.75 123.29q2.26 4.68 6.91 5.89c10.28 2.67 14.54-13.84 16.4-20.12 1.52-5.13-1.93-11.46-5.06-15.35" vector-effect="non-scaling-stroke"/><path stroke="#b1cae3" d="M188 93.71c-6.67-9.27-17.25-6.24-19.68 4.56-1.59 7.08-2.49 18.52 1.43 25.02" vector-effect="non-scaling-stroke"/><path stroke="#578dc2" d="M188 93.71q-.16 0-.31.03-.33.05-.47.35-3.11 6.7-6.09 13.43c-1.5 3.38-7.74 14.99-11.38 15.77" vector-effect="non-scaling-stroke"/></g><path fill="#17528e" d="M121.81 0h12.5C200.59 4.06 252.61 55.86 256 122.81v10.75c-4.42 67.28-55.2 118.77-122.31 122.44h-11.25C54.97 252.39 4.31 200.57 0 133.44v-11.75q2.26-37.62 22.81-66.63Q58.46 4.75 121.81 0Zm3.69 4.46q-6.29-.15-12.5.83-8.4.91-16.49 3.05-39.16 10.62-64.55 41.91-6.64 7.78-11.46 16.74-5.61 9.42-9.04 19.76Q7.71 96.58 6.21 107q-1.83 8.66-1.67 17.5-.59 13.74 2 27.25 9.8 46.05 45.86 74.17c47.24 36.85 116.48 33.86 160.04-7.48 59.68-56.63 50.19-155.61-22.44-197.4q-11.58-6.91-24.5-10.75l-9.75-2.75q-14.91-3.62-30.25-3.08Z"/><path fill="#8bb2d8" d="m155.75 7.54-.06 2.48q-.01.5.22.94c15.31 28.92 14.09 64.95-4.07 92.38q-20.69 31.22-57.08 39.38c-3.13.7-6.76.94-10.14 1.42-1.94.27-3.5-.58-5.37-.93l21.5-26.25q8.24-1.37 14.55-6.43c2.37-1.9 4.91-3.18 6.86-5.13 7.42-7.43 15.37-17.38 17.38-27.9q1.03.45 1.81-.09.43-.29.4-.82l-.36-6.52q2.38-4.18 2.62-6.07.76-6.06.3-17.94c-.09-2.38-.9-4.68-1.16-7.12-1.16-10.63-7.1-20.83-14.11-29.23q-1.48-1.77-.97-4.62.1-.56-.47-.58l-2.1-.05q15.34-.54 30.25 3.08Z"/><path fill="#9abedf" d="m125.5 4.46 2.1.05q.57.02.47.58-.51 2.85.97 4.62c7.01 8.4 12.95 18.6 14.11 29.23.26 2.44 1.07 4.74 1.16 7.12q.46 11.88-.3 17.94-.24 1.89-2.62 6.07c-.3-2.3-1.24-17.45-1.89-18.03q.15-.16.48-.28.62-.21-.01-.36-3.31-.77-6.72-.19 1.38-.31 2.32-1.3.29-.31-.08-.53l-.28-.17q-.3-.18-.33-.53-2.34-23.86-19.98-39.78-.41-.36-.29-.9.47-2.09-1.61-2.71 6.21-.98 12.5-.83Z"/><path fill="#a8c9e5" d="M113 5.29q2.08.62 1.61 2.71-.12.54.29.9 17.64 15.92 19.98 39.78.03.35.33.53l.28.17q.37.22.08.53-.94.99-2.32 1.3l-8.88-.2q-1.46-7.03-3.55-13.86c-.43-1.41-1.68-2.58-2.16-4.04-2.78-8.34-7.9-13.19-15.14-18.58q-3.72-2.77-7.01-6.19Q104.6 6.2 113 5.29Z"/><path fill="#77a3cf" d="m155.75 7.54 9.75 2.75q1.41 1.26 1.32 3.09c-.08 1.54 1.1 2.57 1.51 3.95 1.5 5.04 3.56 9.64 4.36 14.85.77 5.01 1.91 9.83 2.07 14.85q.03.87.61 4.74c.46 3.1-.65 5.96-.55 8.96.13 3.85-.99 8.02-1.41 11.03q-.99 7.19-3.65 14.03-.19.49-.63.77-11.38 7.37-11.57 21.18-.01.47-.29.85c-1.06 1.43-1.71 3.17-2.63 4.41q-10.88 14.61-26.35 24.27-.13.07-.2.25-.13.33-.43.51-25.29 15.24-54.9 13.75l6.49-8.57c1.87.35 3.43 1.2 5.37.93 3.38-.48 7.01-.72 10.14-1.42q36.39-8.16 57.08-39.38c18.16-27.43 19.38-63.46 4.07-92.38q-.23-.44-.22-.94l.06-2.48Z"/><path fill="#b8d7ed" d="M96.51 8.34q3.29 3.42 7.01 6.19c7.24 5.39 12.36 10.24 15.14 18.58.48 1.46 1.73 2.63 2.16 4.04q2.09 6.83 3.55 13.86c-27.96.13-56.03-.93-84.06-.29q-.47.01-.64.45-.89 2.27 1.04 3.58L75 96.71q-.95.45-1.48-.35-.27-.41-.67-.12c-1.31.95-6.6-.35-8.29-.27q-.47.03-.52-.44-.06-.55-.6-.66c-16.31-3.26-28.15-20.04-30.48-35.61q-.96-6.39-1-9.01Q57.35 18.96 96.51 8.34Z"/><path fill="#6294c6" d="M165.5 10.29q12.92 3.84 24.5 10.75-.62 5.45 1.64 10.53.36.81.36-.07v-3.24q0-.6.17-.02c2.01 7 2.84 15.93 2.63 23.31-.11 3.95.43 7.83-.23 11.73q-.25 1.53-.29 3.73-.22 11.05-5.21 22.68c-15.08-11.57-30.09 2.3-30.72 18.28q-.51 13.01 8.44 21.03c-2.68 6.86-10.86 11.53-15.82 16.57q-1.71 1.74-2.49 2.32-12.5 9.31-22.97 13.88-8.45 3.69-24.44 8.51-3.26.99-6.8.98-15.79-.03-31.55.77-2.56.83-5.32.38a.88.87 23.3 0 1-.56-1.39q7.87-10.36 15.92-19.24 29.61 1.49 54.9-13.75.3-.18.43-.51.07-.18.2-.25 15.47-9.66 26.35-24.27c.92-1.24 1.57-2.98 2.63-4.41q.28-.38.29-.85.19-13.81 11.57-21.18.44-.28.63-.77 2.66-6.84 3.65-14.03c.42-3.01 1.54-7.18 1.41-11.03-.1-3 1.01-5.86.55-8.96q-.58-3.87-.61-4.74c-.16-5.02-1.3-9.84-2.07-14.85-.8-5.21-2.86-9.81-4.36-14.85-.41-1.38-1.59-2.41-1.51-3.95q.09-1.83-1.32-3.09Z"/><path fill="#4c85bd" d="M190 21.04c72.63 41.79 82.12 140.77 22.44 197.4-43.56 41.34-112.8 44.33-160.04 7.48Q16.34 197.8 6.54 151.75q2.97.46 3.88 1.09 7.51 5.22 15.86 8.84c2.08.9 4.57 2.51 6.95 3.33 2.35.82 7.36 2.34 11.01 3.04q.41.08.77.3 2 1.28 4.25 1.2.53-.02.84-.46c2.1-3.05 5.1-5.32 7.12-7.96q4.08-5.34 8.28-10.59l8.81-10.89 12.94-16.11 4.96-5.29c.32.29.36.52.07.87q-25.65 31.62-51.79 64.24a1.32 1.32 0 0 0 1.03 2.14h100.32q.6 0 .69-.59l4.71-30.42q.09-.55-.44-.71l-1.02-.31a.85.85 0 0 0-1.07.61c-3.37 13.34-10.72 18.41-24.46 18.53q-28.73.25-57.53-.58 15.76-.8 31.55-.77 3.54.01 6.8-.98 15.99-4.82 24.44-8.51 10.47-4.57 22.97-13.88.78-.58 2.49-2.32c4.96-5.04 13.14-9.71 15.82-16.57 11.98 6.72 23.31 2.52 29.47-9.36a.49.49 0 0 1 .91.1c1.03 4.02 2.84 10.97 7.59 11.75 6.34 1.04 8.9-6.81 9-11.77a.43.43 0 0 0-.83-.16c-6.58 17.17-15.23-1.14-13.08-8.49q3.5-11.94 7.06-23.94.19-.63-.46-.63h-6.09q-.52 0-.66.49l-3.74 12.7a.58.57-48.6 0 1-1.08.07q-2.49-5.79-5.81-10.07 4.99-11.63 5.21-22.68.04-2.2.29-3.73c.66-3.9.12-7.78.23-11.73.21-7.38-.62-16.31-2.63-23.31q-.17-.58-.17.02v3.24q0 .88-.36.07-2.26-5.08-1.64-10.53Zm-7.883 159.762a4.61 4.32-36.9 0 0-6.28-.687 4.61 4.32-36.9 0 0-1.093 6.223 4.61 4.32-36.9 0 0 6.28.687 4.61 4.32-36.9 0 0 1.093-6.223Zm19.143 15.968a.52.52 0 0 0-.52-.52h-44.68a.52.52 0 0 0-.52.52v2.2a.52.52 0 0 0 .52.52h44.68a.52.52 0 0 0 .52-.52v-2.2Zm-18.32 15.29a4.47 4.47 0 0 0-4.47-4.47 4.47 4.47 0 0 0-4.47 4.47 4.47 4.47 0 0 0 4.47 4.47 4.47 4.47 0 0 0 4.47-4.47Z"/><path fill="#a8c9e5" d="M31.96 50.25q.04 2.62 1 9.01c2.33 15.57 14.17 32.35 30.48 35.61q.54.11.6.66.05.47.52.44c1.69-.08 6.98 1.22 8.29.27q.4-.29.67.12.53.8 1.48.35l8.5 10.5-.25.49q-.12.25-.2-.02-.03-.12-.07-.25-.05-.14-.18-.05c-3.2 2.36-10.65 1.43-14.78.88-21.83-2.92-38.31-18.05-45.24-38.82q-.15-.46-.57-.7-1.11-.65-1.71-1.75 4.82-8.96 11.46-16.74Z"/><path fill="#6294c6" d="m124.37 51.01 8.88.2q3.41-.58 6.72.19.63.15.01.36-.33.12-.48.28l-98.23.3q-.5 0-.52.5l-.04 1.91q-1.93-1.31-1.04-3.58.17-.44.64-.45c28.03-.64 56.1.42 84.06.29Z"/><path fill="#fff" d="M139.5 52.04c.65.58 1.59 15.73 1.89 18.03l.36 6.52q.03.53-.4.82-.78.54-1.81.09c-.82-6.15-3.42-13.39-8.75-16.75q-5.86-3.49-12.79-3.21l-55.55-.07q-.61 0-.67.6-.06.51.29 1.11L94.5 98.54l10.1 12.44a.98.97 45.3 0 1 0 1.23l-3.85 4.75-21.5 26.25-6.49 8.57q-8.05 8.88-15.92 19.24a.88.87 23.3 0 0 .56 1.39q2.76.45 5.32-.38 28.8.83 57.53.58c13.74-.12 21.09-5.19 24.46-18.53a.85.85 0 0 1 1.07-.61l1.02.31q.53.16.44.71l-4.71 30.42q-.09.59-.69.59H41.52a1.32 1.32 0 0 1-1.03-2.14q26.14-32.62 51.79-64.24c.29-.35.25-.58-.07-.87l-8.71-11.04-8.5-10.5-34.29-41.96.04-1.91q.02-.5.52-.5l98.23-.3Z"/><path fill="#b8d7ed" d="M118 57.54q-1.33.66-.79 1.8.21.46.05.95c-.89 2.57-.77 5.1-1.66 7.45q-6.56 17.33-23.2 24.71a1.84 1.83-31.4 0 1-2.16-.52l-26.56-32.7q-.29-.36-.74-.25l-.87.2q-.35-.6-.29-1.11.06-.6.67-.6l55.55.07Z"/><path fill="#a8c9e5" d="M118 57.54q6.93-.28 12.79 3.21c-3.82 18.54-12.85 33.1-29.91 41.98a1.32 1.32 0 0 1-1.62-.32l-3.55-4.2q-.31-.37-.77-.21-.44.15-.44.54L62.07 59.18l.87-.2q.45-.11.74.25l26.56 32.7a1.84 1.83-31.4 0 0 2.16.52q16.64-7.38 23.2-24.71c.89-2.35.77-4.88 1.66-7.45q.16-.49-.05-.95-.54-1.14.79-1.8Z"/><path fill="#9abedf" d="M130.79 60.75c5.33 3.36 7.93 10.6 8.75 16.75-2.01 10.52-9.96 20.47-17.38 27.9-1.95 1.95-4.49 3.23-6.86 5.13q-6.31 5.06-14.55 6.43l3.85-4.75a.98.97 45.3 0 0 0-1.23L94.5 98.54q0-.39.44-.54.46-.16.77.21l3.55 4.2a1.32 1.32 0 0 0 1.62.32c17.06-8.88 26.09-23.44 29.91-41.98ZM20.5 66.99q.6 1.1 1.71 1.75.42.24.57.7c6.93 20.77 23.41 35.9 45.24 38.82 4.13.55 11.58 1.48 14.78-.88q.13-.09.18.05.04.13.07.25.08.27.2.02l.25-.49 8.71 11.04-4.96 5.29c-2.6-1.51-4.8-.21-7.22-.4-3.98-.3-8.08.17-11.68-.25q-17.18-2.01-29.67-10.32-8.69-5.78-18.17-16.69c-2.35-2.71-3.91-6.52-6.55-9.53q-.33-.38-.83-.33-1.03.09-1.67.73 3.43-10.34 9.04-19.76Z"/><path fill="#fff" d="M189.07 89.69q3.32 4.28 5.81 10.07a.58.57-48.6 0 0 1.08-.07l3.74-12.7q.14-.49.66-.49h6.09q.65 0 .46.63-3.56 12-7.06 23.94c-2.15 7.35 6.5 25.66 13.08 8.49a.43.43 0 0 1 .83.16c-.1 4.96-2.66 12.81-9 11.77-4.75-.78-6.56-7.73-7.59-11.75a.49.49 0 0 0-.91-.1c-6.16 11.88-17.49 16.08-29.47 9.36q-8.95-8.02-8.44-21.03c.63-15.98 15.64-29.85 30.72-18.28Zm-19.32 33.6q2.26 4.68 6.91 5.89c10.28 2.67 14.54-13.84 16.4-20.12 1.52-5.13-1.93-11.46-5.06-15.35-6.67-9.27-17.25-6.24-19.68 4.56-1.59 7.08-2.49 18.52 1.43 25.02Z"/><path fill="#8bb2d8" d="m87.25 123.54-12.94 16.11c-25.21.08-48.96-12.13-65.07-31.2q-.35-.41-.88-.44-1.3-.06-2.15-1.01 1.5-10.42 5.25-20.25.64-.64 1.67-.73.5-.05.83.33c2.64 3.01 4.2 6.82 6.55 9.53q9.48 10.91 18.17 16.69 12.49 8.31 29.67 10.32c3.6.42 7.7-.05 11.68.25 2.42.19 4.62-1.11 7.22.4Z"/><path fill="#6294c6" d="M188 93.71q-.16 0-.31.03-.33.05-.47.35-3.11 6.7-6.09 13.43c-1.5 3.38-7.74 14.99-11.38 15.77-3.92-6.5-3.02-17.94-1.43-25.02 2.43-10.8 13.01-13.83 19.68-4.56Z"/><path fill="#4c85bd" d="M188 93.71c3.13 3.89 6.58 10.22 5.06 15.35-1.86 6.28-6.12 22.79-16.4 20.12q-4.65-1.21-6.91-5.89c3.64-.78 9.88-12.39 11.38-15.77q2.98-6.73 6.09-13.43.14-.3.47-.35.15-.03.31-.03Z"/><path fill="#77a3cf" d="M6.21 107q.85.95 2.15 1.01.53.03.88.44c16.11 19.07 39.86 31.28 65.07 31.2l-8.81 10.89c-1.62 1.18-2.21.34-3.7.13-21.84-3.18-37.85-12.45-54.36-26.62q-1.36-1.17-2.9.45-.16-8.84 1.67-17.5Z"/><path fill="#6294c6" d="M65.5 150.54q-4.2 5.25-8.28 10.59c-2.02 2.64-5.02 4.91-7.12 7.96q-.31.44-.84.46-2.25.08-4.25-1.2-.36-.22-.77-.3c-3.65-.7-8.66-2.22-11.01-3.04-2.38-.82-4.87-2.43-6.95-3.33q-8.35-3.62-15.86-8.84-.91-.63-3.88-1.09-2.59-13.51-2-27.25 1.54-1.62 2.9-.45c16.51 14.17 32.52 23.44 54.36 26.62 1.49.21 2.08 1.05 3.7-.13Z"/><ellipse fill="#fff" rx="4.61" ry="4.32" transform="rotate(-36.9 364.33 -175.626)"/><rect width="45.72" height="3.24" x="155.54" y="196.25" fill="#fff" rx=".52"/><circle cx="178.47" cy="212.06" r="4.47" fill="#fff"/></svg>